<?xml version="1.0" encoding="utf-8"?>
<!-- Generator: Adobe Illustrator 20.0.0, SVG Export Plug-In . SVG Version: 6.00 Build 0)  -->
<svg version="1.1" id="Layer_1" xmlns="http://www.w3.org/2000/svg" xmlns:xlink="http://www.w3.org/1999/xlink" x="0px" y="0px"
	 viewBox="0 0 1284 993" style="enable-background:new 0 0 1284 993;" xml:space="preserve">
<style type="text/css">
	.st0{fill:none;stroke:#68AD36;stroke-width:2.1471;}
	.st1{fill:none;stroke:#68AD36;stroke-width:0.2647;}
	.st2{fill:none;stroke:#68AD36;stroke-width:1.7941;}
	.st3{fill:none;stroke:#68AD36;stroke-width:0.1471;}
	.st4{fill:none;stroke:#68AD36;stroke-width:0.2353;}
	.st5{fill:none;stroke:#68AD36;stroke-width:0.1176;}
	.st6{fill:none;}
	.st7{fill:none;stroke:#9D9482;stroke-width:0.2647;}
	.st8{fill:none;stroke:#68AD36;stroke-width:6.2941;}
	.st9{fill:none;stroke:#68AD36;stroke-width:0.7941;}
	.st10{fill:none;stroke:#68AD36;stroke-width:0.5882;}
	.st11{fill:none;stroke:#68AD36;stroke-width:0.3529;}
	.st12{fill:none;stroke:#68AD36;stroke-width:8.823530e-02;}
	.st13{fill:none;stroke:#68AD36;stroke-width:4.2059;}
	.st14{fill:none;stroke:#68AD36;stroke-width:0.4706;}
	.st15{fill:none;stroke:#9D9482;stroke-width:1.4412;}
	.st16{fill:none;stroke:#68AD36;stroke-width:0.4412;}
	.st17{fill:none;stroke:#D27CCE;stroke-width:2.4118;}
	.st18{fill:none;stroke:#D27CCE;stroke-width:0.2647;}
	.st19{fill:none;stroke:#D27CCE;stroke-width:0.1471;}
	.st20{fill:none;stroke:#D27CCE;stroke-width:0.8235;}
	.st21{fill:none;stroke:#D27CCE;stroke-width:0.6765;}
	.st22{fill:none;stroke:#D27CCE;stroke-width:5.882353e-02;}
	.st23{fill:none;stroke:#D27CCE;stroke-width:6.5;}
	.st24{fill:none;stroke:#D27CCE;stroke-width:1.0882;}
	.st25{fill:none;stroke:#9D9482;stroke-width:0.1176;}
	.st26{fill:none;stroke:#D27CCE;stroke-width:2.941176e-02;}
	.st27{fill:none;stroke:#9D9482;stroke-width:5.882353e-02;}
	.st28{fill:none;stroke:#D27CCE;stroke-width:0.1765;}
	.st29{fill:none;stroke:#6999D4;stroke-width:0.2647;}
	.st30{fill:none;stroke:#9D9482;stroke-width:2.941176e-02;}
	.st31{fill:none;stroke:#E87886;stroke-width:2.3824;}
	.st32{fill:none;stroke:#D27CCE;stroke-width:0.9118;}
	.st33{fill:none;stroke:#6999D4;stroke-width:8.823530e-02;}
	.st34{fill:none;stroke:#D27CCE;stroke-width:0.5;}
	.st35{fill:none;stroke:#9D9482;stroke-width:0.3824;}
	.st36{fill:none;stroke:#E87886;stroke-width:8.823530e-02;}
	.st37{fill:none;stroke:#6999D4;stroke-width:0.2353;}
	.st38{fill:none;stroke:#9D9482;stroke-width:8.823530e-02;}
	.st39{fill:none;stroke:#E87886;stroke-width:0.1471;}
	.st40{fill:none;stroke:#9D9482;stroke-width:0.1471;}
	.st41{fill:none;stroke:#E87886;stroke-width:0.4706;}
	.st42{fill:none;stroke:#9D9482;stroke-width:0.5;}
	.st43{fill:none;stroke:#D27CCE;stroke-width:2.9706;}
	.st44{fill:none;stroke:#E87886;stroke-width:0.4412;}
	.st45{fill:none;stroke:#9D9482;stroke-width:0.9412;}
	.st46{fill:none;stroke:#6999D4;stroke-width:2.941176e-02;}
	.st47{fill:none;stroke:#D27CCE;stroke-width:0.2059;}
	.st48{fill:none;stroke:#D27CCE;stroke-width:0.6176;}
	.st49{fill:none;stroke:#D27CCE;stroke-width:0.2941;}
	.st50{fill:none;stroke:#E87886;stroke-width:1.3824;}
	.st51{fill:none;stroke:#D27CCE;stroke-width:1.8235;}
	.st52{fill:none;stroke:#D27CCE;stroke-width:1.0294;}
	.st53{fill:none;stroke:#D27CCE;stroke-width:0.9412;}
	.st54{fill:none;stroke:#D27CCE;stroke-width:1.4118;}
	.st55{fill:none;stroke:#E87886;stroke-width:0.4118;}
	.st56{fill:none;stroke:#D27CCE;stroke-width:8.823530e-02;}
	.st57{fill:none;stroke:#E87886;stroke-width:0.5;}
	.st58{fill:none;stroke:#D27CCE;stroke-width:0.1176;}
	.st59{fill:none;stroke:#D27CCE;stroke-width:0.2353;}
	.st60{fill:none;stroke:#D27CCE;stroke-width:4.8235;}
	.st61{fill:none;stroke:#FF743E;stroke-width:0.2941;}
	.st62{fill:none;stroke:#FF743E;stroke-width:5.8824;}
	.st63{fill:none;stroke:#FF743E;stroke-width:0.6765;}
	.st64{fill:none;stroke:#FF743E;stroke-width:0.7647;}
	.st65{fill:none;stroke:#FF743E;stroke-width:0.3235;}
	.st66{fill:none;stroke:#68AD36;stroke-width:0.4118;}
	.st67{fill:none;stroke:#68AD36;stroke-width:0.1765;}
	.st68{fill:none;stroke:#B3903A;stroke-width:0.3824;}
	.st69{fill:none;stroke:#68AD36;stroke-width:0.8824;}
	.st70{fill:none;stroke:#68AD36;stroke-width:5.882353e-02;}
	.st71{fill:none;stroke:#68AD36;stroke-width:0.2941;}
	.st72{fill:none;stroke:#68AD36;stroke-width:0.3824;}
	.st73{fill:none;stroke:#9D9482;stroke-width:3.4118;}
	.st74{fill:none;stroke:#68AD36;stroke-width:2.6765;}
	.st75{fill:none;stroke:#68AD36;stroke-width:0.5;}
	.st76{fill:none;stroke:#00B7DA;stroke-width:8.823530e-02;}
	.st77{fill:none;stroke:#7F958C;stroke-width:0.1176;}
	.st78{fill:none;stroke:#7F958C;stroke-width:0.1765;}
	.st79{fill:none;stroke:#00B7DA;stroke-width:2.941176e-02;}
	.st80{fill:none;stroke:#00B7DA;stroke-width:0.3824;}
	.st81{fill:none;stroke:#00B7DA;stroke-width:0.1176;}
	.st82{fill:none;stroke:#6999D4;stroke-width:0.1471;}
	.st83{fill:none;stroke:#00B7DA;stroke-width:2.4412;}
	.st84{fill:none;stroke:#00B7DA;stroke-width:5.882353e-02;}
	.st85{fill:none;stroke:#00B7DA;stroke-width:0.4706;}
	.st86{fill:none;stroke:#34B288;stroke-width:2.941176e-02;}
	.st87{fill:none;stroke:#00B7DA;stroke-width:0.2353;}
	.st88{fill:none;stroke:#FF743E;stroke-width:5.882353e-02;}
	.st89{fill:none;stroke:#E87886;stroke-width:0.5294;}
	.st90{fill:none;stroke:#FF743E;stroke-width:2.3529;}
	.st91{fill:none;stroke:#FF743E;stroke-width:0.8824;}
	.st92{fill:none;stroke:#7F958C;stroke-width:2.941176e-02;}
	.st93{fill:none;stroke:#FF743E;stroke-width:0.2647;}
	.st94{fill:none;stroke:#D27CCE;stroke-width:1.5882;}
	.st95{fill:none;stroke:#6999D4;stroke-width:0.3824;}
	.st96{fill:none;stroke:#E87886;stroke-width:2.7941;}
	.st97{fill:none;stroke:#E87886;stroke-width:2.941176e-02;}
	.st98{fill:none;stroke:#6999D4;stroke-width:5.882353e-02;}
	.st99{fill:none;stroke:#6999D4;stroke-width:0.2059;}
	.st100{fill:none;stroke:#D27CCE;stroke-width:10;}
	.st101{fill:none;stroke:#9D9482;stroke-width:0.1765;}
	.st102{fill:none;stroke:#6999D4;stroke-width:0.1176;}
	.st103{fill:none;stroke:#E87886;stroke-width:0.6471;}
	.st104{fill:none;stroke:#D27CCE;stroke-width:2.7059;}
	.st105{fill:none;stroke:#D27CCE;stroke-width:1.3824;}
	.st106{fill:none;stroke:#D27CCE;stroke-width:0.3529;}
	.st107{fill:none;stroke:#D27CCE;stroke-width:1.2059;}
	.st108{fill:none;stroke:#FF743E;stroke-width:0.8529;}
	.st109{fill:none;stroke:#E87886;stroke-width:0.2941;}
	.st110{fill:#FF743E;stroke:#000000;}
	.st111{fill:#68AD36;stroke:#000000;}
	.st112{fill:#D27CCE;stroke:#000000;}
	.st113{fill:#00B7DA;stroke:#000000;}
	.st114{font-family:'ArialMT';}
	.st115{font-size:22.1995px;}
	.st116{font-size:19.4245px;}
	.st117{font-size:16.6496px;}
	.st118{font-size:41.624px;}
	.st119{font-size:33.2992px;}
	.st120{font-size:13.8747px;}
	.st121{font-size:24.9744px;}
	.st122{font-size:11.0997px;}
	.st123{font-size:44.3989px;}
</style>
<g id="edges">
	<path class="st0" d="M396.9,447.5c44.5,34.3,59.9,152.5,25.7,197"/>
	<path class="st1" d="M396.9,447.5c-74.5-52.9-106.9-244-53.9-318.5"/>
	<path class="st2" d="M396.9,447.5C328.8,493.7,157.3,461,111,392.9"/>
	<path class="st3" d="M396.9,447.5c33.4,55.2,0.8,188.2-54.4,221.6"/>
	<path class="st4" d="M396.9,447.5c84.9,62.6,118.4,284,55.8,368.9"/>
	<path class="st5" d="M396.9,447.5c35.3,18.2,60.8,98.5,42.6,133.7"/>
	<path class="st6" d="M396.9,447.5c-45.5,53.9-194.4,66.5-248.3,21"/>
	<path class="st7" d="M396.9,447.5c23.2-62,151-120.2,213-97"/>
	<path class="st8" d="M396.9,447.5c-76.9,15.6-215.5-76.3-231.1-153.2"/>
	<path class="st6" d="M396.9,447.5c-30.8-27-36.6-113.8-9.6-144.7"/>
	<path class="st9" d="M396.9,447.5c-67,65.6-265.8,63.4-331.4-3.6"/>
	<path class="st10" d="M396.9,447.5c23.3,39-0.2,132.4-39.2,155.7"/>
	<path class="st11" d="M396.9,447.5c-46.8,75.6-230.3,119-306,72.2"/>
	<path class="st12" d="M396.9,447.5c-26.3,90.3-201.2,186.4-291.5,160.2"/>
	<path class="st4" d="M396.9,447.5c-65.8-15.6-141.1-137.8-125.4-203.6"/>
	<path class="st5" d="M396.9,447.5c-74.7,36.8-242-20.1-278.8-94.8"/>
	<path class="st13" d="M396.9,447.5c23.2,6.1,48.9,50,42.8,73.2"/>
	<path class="st14" d="M396.9,447.5c5.8,34.7-37.6,95.5-72.3,101.3"/>
	<path class="st3" d="M396.9,447.5c2.9,15.3-15.7,42.8-31,45.7"/>
	<path class="st15" d="M396.9,447.5c96.7-72.5,350.5-36.3,423.1,60.4"/>
	<path class="st5" d="M396.9,447.5c55.2-10.8,154.1,55.8,164.9,111"/>
	<path class="st16" d="M396.9,447.5c-5.8,87.4-145.6,209.8-233,204"/>
	<path class="st6" d="M396.9,447.5c-28.7,69.5-176.1,130.7-245.7,102"/>
	<path class="st6" d="M396.9,447.5c-22-49.7,19.6-157.3,69.4-179.3"/>
	<path class="st17" d="M721,268.9c67.6,28,127,171.4,99,239"/>
	<path class="st6" d="M721,268.9c46,29.7,70.6,143.3,40.9,189.3"/>
	<path class="st18" d="M721,268.9c-5.9,38.5-72.5,87.5-111,81.6"/>
	<path class="st19" d="M609.9,350.5C573.4,262.9,650,76.5,737.7,40"/>
	<path class="st20" d="M609.9,350.5c48,25.6,81.6,136,56,184"/>
	<path class="st6" d="M609.9,350.5c-21,29.8-97.3,43-127.1,22"/>
	<path class="st21" d="M609.9,350.5C556.8,289,569.4,116.9,631,63.7"/>
	<path class="st19" d="M609.9,350.5c-20.8-33.6-1.6-115.2,32-136"/>
	<path class="st22" d="M609.9,350.5c-22-1.2-53.2-35.9-52.1-57.9"/>
	<path class="st23" d="M609.9,350.5C683.4,340,809.5,434.4,820,507.9"/>
	<path class="st6" d="M609.9,350.5c-23.2,62-151,120.2-213,97"/>
	<path class="st6" d="M609.9,350.5c51.9-8.9,143.1,55.7,151.9,107.6"/>
	<path class="st22" d="M609.9,350.5c5.9-38.5,72.5-87.5,111-81.6"/>
	<path class="st24" d="M609.9,350.5c26.8-31.8,114.8-39.3,146.6-12.4"/>
	<path class="st25" d="M609.9,350.5c-20.3,77.3-166.7,162.9-244,142.7"/>
	<path class="st22" d="M609.9,350.5c33.7-77.2,200.1-142.4,277.3-108.6"/>
	<path class="st26" d="M609.9,350.5c-45.2,12.3-131.4-37.1-143.6-82.3"/>
	<path class="st27" d="M666,534.6c-26.7,70.7-172.7,136.6-243.4,109.9"/>
	<path class="st22" d="M666,534.6c-69,4.2-179-93-183.2-162.1"/>
	<path class="st27" d="M666,534.6c-37.8,91.6-231.8,172.3-323.4,134.5"/>
	<path class="st6" d="M666,534.6c27-86.4,197.1-175.6,283.5-148.7"/>
	<path class="st28" d="M666,534.6c-37.2-50.9-16.6-183.1,34.3-220.3"/>
	<path class="st29" d="M666,534.6c38.8-20.8,128.1,6.1,148.9,44.8"/>
	<path class="st22" d="M666,534.6c-79.3-78.6-80.4-315.4-1.8-394.6"/>
	<path class="st30" d="M666,534.6c-36,54.6-171.8,82.6-226.4,46.7"/>
	<path class="st31" d="M666,534.6c3.9-34.5,61.4-80.3,95.9-76.4"/>
	<path class="st32" d="M666,534.6c-48-25.6-81.6-136-56-184"/>
	<path class="st33" d="M666,534.6c84.4-45,278.5,14.2,323.4,98.7"/>
	<path class="st22" d="M666,534.6c-102.1,9.4-269.2-129.7-278.6-231.8"/>
	<path class="st34" d="M666,534.6c-68.8-59.2-83.2-251.2-24-320.1"/>
	<path class="st35" d="M666,534.6c-47.9,75.4-232.8,116.6-308.2,68.6"/>
	<path class="st36" d="M666,534.6c38-59.3,183.9-91.2,243.2-53.2"/>
	<path class="st37" d="M666,534.6c26.4,2.4,62.3,45.7,59.8,72"/>
	<path class="st38" d="M666,534.6c-89,33.9-273.5-48.7-307.5-137.7"/>
	<path class="st6" d="M666,534.6c7-76,131.5-179.5,207.5-172.5"/>
	<path class="st6" d="M666,534.6c86.1,38.8,157,226.1,118.2,312.2"/>
	<path class="st39" d="M666,534.6c12.8-110.6,198-257.1,308.5-244.3"/>
	<path class="st22" d="M666,534.6c-31.2-107.7,83.6-315.9,191.3-347"/>
	<path class="st40" d="M666,534.6c-15.6,92.9-178.3,209-271.2,193.4"/>
	<path class="st26" d="M666,534.6c56.5,0.8,140.2,86.7,139.4,143.2"/>
	<path class="st41" d="M666,534.6c58.2-17.4,171.6,43.9,189,102.2"/>
	<path class="st6" d="M666,534.6c42.9-92.8,246.6-167.7,339.5-124.7"/>
	<path class="st19" d="M666,534.6c-21.2-57.4,33.1-175.3,90.5-196.5"/>
	<path class="st42" d="M666,534.6c-48,42.5-183.8,34.1-226.2-13.9"/>
	<path class="st6" d="M666,534.6c-65.4,71.1-270.2,79.6-341.3,14.2"/>
	<path class="st29" d="M666,534.6c69.6-39.9,233.7,4.6,273.6,74.2"/>
	<path class="st43" d="M666,534.6c25.5-36.1,117.9-52.2,154.1-26.7"/>
	<path class="st44" d="M666,534.6c-19-21.1-15.8-81.4,5.4-100.3"/>
	<path class="st45" d="M666,534.6c-71.2,36.4-232.6-15.9-269-87.1"/>
	<path class="st46" d="M666,534.6c73.1-68.4,285.4-61.3,353.8,11.8"/>
	<path class="st47" d="M666,534.6c-54-94.3,6.4-316.9,100.7-370.9"/>
	<path class="st46" d="M666,534.6c76.7-8.7,204.6,93.4,213.3,170"/>
	<path class="st33" d="M666,534.6c56.7,31.8,94,164.5,62.2,221.1"/>
	<path class="st38" d="M666,534.6c-16,25.6-78.5,39.9-104.1,23.9"/>
	<path class="st48" d="M666,534.6C735,629,697,874.1,602.6,943.2"/>
	<path class="st49" d="M666,534.6c12.1,32.3-18.2,99-50.6,111.1"/>
	<path class="st47" d="M666,534.6c71.2,63.5,82.8,265.6,19.3,336.8"/>
	<path class="st47" d="M666,534.6c74,24.3,148.6,171.7,124.3,245.7"/>
	<path class="st19" d="M666,534.6c91.3-13.7,248.8,102.7,262.5,194"/>
	<path class="st26" d="M666,534.6c-93.2-13.3-213-173.2-199.7-266.4"/>
	<path class="st46" d="M756.5,338.1c59.9,36.6,95,181.4,58.4,241.3"/>
	<path class="st18" d="M756.5,338.1C698.4,316.9,643,198,664.2,139.9"/>
	<path class="st50" d="M756.5,338.1c25.1,22.9,28.3,95,5.4,120.1"/>
	<path class="st51" d="M756.5,338.1c-26.8,31.8-114.8,39.3-146.6,12.4"/>
	<path class="st52" d="M756.5,338.1c6.9-45.4,85.3-103.1,130.7-96.2"/>
	<path class="st53" d="M756.5,338.1c-63.4-55.9-74.7-234.7-18.8-298.1"/>
	<path class="st54" d="M756.5,338.1c21.2,57.4-33.1,175.3-90.5,196.5"/>
	<path class="st19" d="M756.5,338.1c-47.6-1.8-116.4-76-114.5-123.6"/>
	<path class="st6" d="M756.5,338.1c59.2-1.9,150.8,84,152.7,143.2"/>
	<path class="st6" d="M756.5,338.1c47.6,59.8,29.1,220.9-30.7,268.5"/>
	<path class="st6" d="M756.5,338.1C734.8,241.7,847,64.5,943.4,42.9"/>
	<path class="st6" d="M756.5,338.1c23.1-73.3,167.8-148.6,241.1-125.4"/>
	<path class="st55" d="M756.5,338.1c28.2-18.6,98.4-4.2,117,24"/>
	<path class="st46" d="M756.5,338.1c90.7,17.5,200.6,179.9,183.1,270.7"/>
	<path class="st56" d="M756.5,338.1c-10-50.3,50.5-140.6,100.8-150.6"/>
	<path class="st57" d="M756.5,338.1c79.4,40,138.5,219.2,98.5,298.6"/>
	<path class="st58" d="M756.5,338.1c-20.9-6.7-42.3-48.3-35.5-69.2"/>
	<path class="st59" d="M756.5,338.1C756.5,338.1,798.1,338.1,756.5,338.1"/>
	<path class="st26" d="M756.5,338.1c-80-29.8-155.3-194.4-125.5-274.4"/>
	<path class="st60" d="M756.5,338.1c46.7,21.3,84.8,123.1,63.5,169.8"/>
	<path class="st6" d="M756.5,338.1c2.2,36.3-48.9,93.9-85.1,96.1"/>
	<path class="st38" d="M756.5,338.1c-50,93.8-265.8,159.4-359.6,109.4"/>
	<path class="st26" d="M756.5,338.1c-32.9-36.9-26.8-141.6,10.1-174.4"/>
	<path class="st61" d="M854.9,636.7c-20.2-41.9,12.3-135.2,54.2-155.4"/>
	<path class="st62" d="M854.9,636.7c-54.3-17.1-110.2-124.2-93.1-178.6"/>
	<path class="st63" d="M854.9,636.7c27.9,56.2-14.6,182.2-70.7,210.1"/>
	<path class="st64" d="M854.9,636.7c88.9-10.7,238.3,106.6,249,195.5"/>
	<path class="st6" d="M854.9,636.7c13,80.9-88.8,221.7-169.7,234.7"/>
	<path class="st65" d="M854.9,636.7C854.9,636.7,896.6,636.7,854.9,636.7"/>
	<path class="st66" d="M365.9,493.2c41.6,18.9,75.6,109.7,56.7,151.3"/>
	<path class="st6" d="M365.9,493.2c-0.8-47.5,69.4-119.9,116.9-120.7"/>
	<path class="st3" d="M365.9,493.2c-71,30.9-224-29.3-254.9-100.3"/>
	<path class="st67" d="M365.9,493.2c30.5,39.9,16.5,145.4-23.4,175.9"/>
	<path class="st1" d="M365.9,493.2c32.3,2.9,76.5,55.7,73.6,88"/>
	<path class="st68" d="M365.9,493.2c72.2-86.2,309.7-107.2,395.9-35"/>
	<path class="st66" d="M365.9,493.2c-8.7,72-129.9,167-202,158.3"/>
	<path class="st6" d="M365.9,493.2c-48.4,38.5-178.8,23.7-217.3-24.7"/>
	<path class="st42" d="M365.9,493.2c20.3-77.3,166.7-162.9,244-142.7"/>
	<path class="st69" d="M365.9,493.2c-69.9,50.2-250.2,20.6-300.4-49.3"/>
	<path class="st12" d="M365.9,493.2c20.4,23.6,15.5,89.7-8.2,110"/>
	<path class="st4" d="M365.9,493.2c-49.7,60.3-214.7,76.2-275,26.5"/>
	<path class="st70" d="M365.9,493.2c-20.7-17.8-25.2-75.6-7.4-96.3"/>
	<path class="st10" d="M365.9,493.2c-29.2,75-185.5,143.7-260.5,114.5"/>
	<path class="st66" d="M365.9,493.2c52.7,41.2,70,182.1,28.8,234.8"/>
	<path class="st6" d="M365.9,493.2c-78.2-41.9-132.7-222-90.8-300.2"/>
	<path class="st12" d="M365.9,493.2c-68.8-31-125.4-180.6-94.4-249.3"/>
	<path class="st71" d="M365.9,493.2c70.7,1,175.2,108.5,174.3,179.2"/>
	<path class="st6" d="M365.9,493.2c-77.6,21.5-226.3-62.8-247.8-140.5"/>
	<path class="st72" d="M365.9,493.2c20.3-9.3,64.5,7.2,73.8,27.5"/>
	<path class="st1" d="M365.9,493.2c2.9,19.4-21.9,52.7-41.3,55.6"/>
	<path class="st73" d="M365.9,493.2c93.8-87.9,366.2-79,454.1,14.7"/>
	<path class="st6" d="M365.9,493.2c49.3-72.9,232.6-108.2,305.4-59"/>
	<path class="st74" d="M365.9,493.2c-2.9-15.3,15.7-42.8,31-45.7"/>
	<path class="st12" d="M365.9,493.2c-79.8,0.2-199.9-119.1-200.1-198.9"/>
	<path class="st6" d="M365.9,493.2c80.4-19.4,230.1,72.1,249.5,152.5"/>
	<path class="st6" d="M365.9,493.2C365.9,493.2,398.3,493.2,365.9,493.2"/>
	<path class="st75" d="M365.9,493.2c-31.7,54.2-160.5,88-214.7,56.3"/>
	<path class="st76" d="M939.5,608.8c72.6,54,100.5,244.1,46.5,316.7"/>
	<path class="st77" d="M939.5,608.8c-65.7,5.4-172.3-84.9-177.7-150.6"/>
	<path class="st78" d="M939.5,608.8c77.6,11.8,176.2,145.9,164.4,223.5"/>
	<path class="st79" d="M939.5,608.8c-6.6-102.5,137.3-266.1,239.7-272.7"/>
	<path class="st80" d="M939.5,608.8c14.9-5.1,44.8,9.6,49.8,24.5"/>
	<path class="st6" d="M939.5,608.8c54.6-24.5,173.4,20.6,197.9,75.2"/>
	<path class="st46" d="M939.5,608.8c-13,40.6-93.5,82.1-134.1,69"/>
	<path class="st6" d="M939.5,608.8c46.6-41.5,178.8-33.8,220.3,12.8"/>
	<path class="st81" d="M939.5,608.8c3.6-28.5,51.7-66,80.3-62.4"/>
	<path class="st6" d="M939.5,608.8c7.1,31.2-29.1,88.7-60.3,95.8"/>
	<path class="st79" d="M939.5,608.8c55.7-5.1,146.9,70.8,152,126.6"/>
	<path class="st6" d="M939.5,608.8c-57.5,72.2-251.9,94.3-324.1,36.9"/>
	<path class="st6" d="M939.5,608.8c21.7,26.2,15.1,98.1-11.1,119.8"/>
	<path class="st82" d="M887.2,241.9c77.3-39.6,252.5,16.9,292.1,94.2"/>
	<path class="st26" d="M887.2,241.9c-28.6-51,5.2-170.5,56.2-199"/>
	<path class="st56" d="M887.2,241.9c-16.9-4.9-34.8-37.5-30-54.4"/>
	<path class="st6" d="M887.2,241.9c-6.9,45.4-85.3,103.1-130.7,96.2"/>
	<path class="st26" d="M887.2,241.9c-33.7,77.2-200.1,142.4-277.3,108.6"/>
	<path class="st83" d="M728.2,755.7c-17.9-52.6,34.1-158.4,86.7-176.3"/>
	<path class="st84" d="M728.2,755.7c85.5-17.6,240.2,84.2,257.8,169.7"/>
	<path class="st85" d="M728.2,755.7c-30.3-29.3-31.8-118.8-2.4-149.1"/>
	<path class="st46" d="M728.2,755.7c12.4,62.6-62.9,175.1-125.6,187.5"/>
	<path class="st86" d="M728.2,755.7c-43,67.2-208.3,103.7-275.5,60.7"/>
	<path class="st46" d="M728.2,755.7C697,687.8,752.1,539.1,820,507.9"/>
	<path class="st33" d="M728.2,755.7c-0.1-31,46.2-77.8,77.2-77.9"/>
	<path class="st79" d="M728.2,755.7c59.8-11.9,167.5,60,179.4,119.8"/>
	<path class="st87" d="M728.2,755.7c20-40.4,110.6-71.1,151-51.1"/>
	<path class="st6" d="M728.2,755.7c17.3-7.5,54.6,7.3,62,24.6"/>
	<path class="st56" d="M1240.8,539.4c-90.5,77.9-342.9,59-420.8-31.5"/>
	<path class="st88" d="M1025.2,464.7c-54,51.4-212,47.4-263.3-6.5"/>
	<path class="st6" d="M1025.2,464.7c-32.4,49.7-155.5,75.6-205.2,43.2"/>
	<path class="st89" d="M906.2,431.2c-0.4-17.7,25.5-44.9,43.2-45.3"/>
	<path class="st90" d="M906.2,431.2c-23.5,34.3-110.1,50.5-144.4,27"/>
	<path class="st6" d="M906.2,431.2c17.3-63.9,139-134,203-116.7"/>
	<path class="st91" d="M906.2,431.2c-20.4-7.3-40-48.7-32.8-69.1"/>
	<path class="st6" d="M906.2,431.2c42.2,28.8,62.2,135.4,33.3,177.6"/>
	<path class="st88" d="M906.2,431.2c-14.5-41.8,26.4-126.4,68.3-140.9"/>
	<path class="st88" d="M906.2,431.2c39.4-52.7,177.4-72.6,230.1-33.2"/>
	<path class="st88" d="M906.2,431.2c-46.4,47.6-187.3,49.4-234.9,3"/>
	<path class="st92" d="M906.2,431.2c45.8,0.3,113.9,69.4,113.6,115.2"/>
	<path class="st93" d="M906.2,431.2c30.9,51.4,0.1,174.7-51.3,205.5"/>
	<path class="st6" d="M906.2,431.2c56.5-42.2,204.7-20.7,246.9,35.8"/>
	<path class="st94" d="M820,507.9c1.5-50.3,79.2-123.5,129.4-122"/>
	<path class="st56" d="M820,507.9c-62.7-14.8-134.5-131-119.8-193.7"/>
	<path class="st95" d="M820,507.9c13.3,15.3,10.2,58.2-5.1,71.5"/>
	<path class="st96" d="M820,507.9c-21.6,1.7-56.5-28.1-58.2-49.7"/>
	<path class="st36" d="M820,507.9c1.9-32.6,53.6-78.6,86.2-76.7"/>
	<path class="st22" d="M820,507.9c-73.5,10.5-199.5-83.9-210.1-157.4"/>
	<path class="st29" d="M820,507.9c58.9-8.8,160.6,66.4,169.4,125.3"/>
	<path class="st28" d="M820,507.9C794.5,544,702.1,560,666,534.6"/>
	<path class="st97" d="M820,507.9c12.5-23.1,66-39.1,89.2-26.6"/>
	<path class="st98" d="M820,507.9c0.9,38.6-55.7,97.8-94.2,98.7"/>
	<path class="st58" d="M820,507.9c19.1-96.5,192.6-212.6,289.2-193.4"/>
	<path class="st26" d="M820,507.9c-23.5-94.6,83-271.7,177.6-295.2"/>
	<path class="st97" d="M820,507.9c-18.5-39.8,13.6-127.3,53.4-145.8"/>
	<path class="st33" d="M820,507.9c51.2,27.5,86.7,145.5,59.2,196.7"/>
	<path class="st99" d="M820,507.9c44.1-3.7,115.8,56.8,119.5,100.9"/>
	<path class="st32" d="M820,507.9c31.1,36.9,22.3,138.8-14.6,169.9"/>
	<path class="st59" d="M820,507.9c-39.8-66.6,0.6-226.2,67.2-266"/>
	<path class="st58" d="M820,507.9c90.7-45.2,294.6,23,339.8,113.7"/>
	<path class="st6" d="M820,507.9c32.4-49.7,155.5-75.6,205.2-43.2"/>
	<path class="st46" d="M820,507.9c98.7-28.3,289.1,77.4,317.4,176.1"/>
	<path class="st6" d="M820,507.9c17.5-56.7,128.7-115.5,185.4-98"/>
	<path class="st6" d="M820,507.9c-23.1,88.9-191,187.6-279.8,164.5"/>
	<path class="st49" d="M820,507.9c-46.7-21.3-84.8-123.1-63.5-169.8"/>
	<path class="st100" d="M820,507.9C820,507.9,894,507.9,820,507.9"/>
	<path class="st55" d="M820,507.9c-44.5,15-133.7-29.2-148.7-73.7"/>
	<path class="st6" d="M820,507.9c41.3-85.2,231.1-151.2,316.3-109.9"/>
	<path class="st101" d="M820,507.9c-96.7,72.5-350.5,36.3-423.1-60.4"/>
	<path class="st102" d="M820,507.9c91,56,143.6,276.6,87.6,367.6"/>
	<path class="st37" d="M820,507.9c31.2,67.9-23.9,216.6-91.8,247.8"/>
	<path class="st6" d="M820,507.9c-41.5,61.7-196.4,92.1-258.2,50.6"/>
	<path class="st6" d="M820,507.9c99.8-8.8,262.7,127.6,271.6,227.4"/>
	<path class="st103" d="M820,507.9c32.8,18.8,53.7,96.1,34.9,128.8"/>
	<path class="st19" d="M820,507.9c48.5,60.4,30.7,223.9-29.8,272.4"/>
	<path class="st104" d="M820,507.9c65.8,22.4,130.9,154.8,108.4,220.7"/>
	<path class="st6" d="M820,507.9c58.4-74.8,258.3-99.4,333.1-40.9"/>
	<path class="st30" d="M557.8,292.7c-76.5,36.6-246.1-23.2-282.7-99.7"/>
	<path class="st56" d="M557.8,292.7C557.8,292.7,585.6,292.7,557.8,292.7"/>
	<path class="st105" d="M557.8,292.7c95.5-9.4,252.8,119.7,262.2,215.2"/>
	<path class="st38" d="M557.8,292.7c-67,47.5-238.8,18.2-286.3-48.8"/>
	<path class="st106" d="M557.8,292.7c32.8-24.2,118.2-11.2,142.4,21.6"/>
	<path class="st30" d="M557.8,292.7c-75.7,10.2-204.6-88-214.9-163.7"/>
	<path class="st22" d="M557.8,292.7c27.9-37.4,125.7-51.6,163.1-23.8"/>
	<path class="st107" d="M557.8,292.7c22,1.2,53.2,35.9,52.1,57.9"/>
	<path class="st97" d="M557.8,292.7c97.4-42,306.4,41.1,348.4,138.5"/>
	<path class="st51" d="M557.8,292.7c-23.2,13.4-78.1-1.3-91.5-24.5"/>
	<path class="st108" d="M671.4,434.2c22.9-13.3,77.2,1.1,90.5,24"/>
	<path class="st109" d="M671.4,434.2c44.5-15,133.7,29.2,148.7,73.7"/>
</g>
<g id="nodes">
	<circle class="st110" cx="909.2" cy="481.3" r="9.2"/>
	<circle class="st111" cx="422.6" cy="644.5" r="8.1"/>
	<circle class="st112" cx="482.8" cy="372.5" r="8.1"/>
	<circle class="st111" cx="111" cy="392.9" r="6.9"/>
	<circle class="st111" cx="342.5" cy="669.1" r="8.1"/>
	<circle class="st112" cx="949.5" cy="385.9" r="8.1"/>
	<circle class="st112" cx="700.2" cy="314.2" r="8.1"/>
	<circle class="st113" cx="814.9" cy="579.4" r="9.2"/>
	<circle class="st113" cx="986" cy="925.4" r="6.9"/>
	<circle class="st111" cx="343" cy="128.9" r="6.9"/>
	<circle class="st111" cx="452.7" cy="816.4" r="6.9"/>
	<circle class="st112" cx="664.2" cy="139.9" r="6.9"/>
	<circle class="st111" cx="439.5" cy="581.2" r="8.1"/>
	<circle class="st110" cx="906.2" cy="431.2" r="6.9"/>
	<circle class="st110" cx="761.9" cy="458.2" r="17.3"/>
	<circle class="st110" cx="1103.9" cy="832.2" r="6.9"/>
	<circle class="st111" cx="148.6" cy="468.5" r="6.9"/>
	<circle class="st112" cx="609.9" cy="350.5" r="13.9"/>
	<circle class="st113" cx="1179.3" cy="336.1" r="6.9"/>
	<circle class="st113" cx="989.4" cy="633.2" r="8.1"/>
	<circle class="st112" cx="887.2" cy="241.9" r="8.1"/>
	<circle class="st112" cx="387.4" cy="302.8" r="6.9"/>
	<circle class="st112" cx="737.7" cy="40" r="6.9"/>
	<circle class="st112" cx="666" cy="534.6" r="8.1"/>
	<circle class="st111" cx="65.5" cy="443.9" r="6.9"/>
	<circle class="st112" cx="557.8" cy="292.7" r="6.9"/>
	<circle class="st111" cx="357.8" cy="603.2" r="8.1"/>
	<circle class="st111" cx="90.9" cy="519.7" r="6.9"/>
	<circle class="st113" cx="725.8" cy="606.6" r="9.2"/>
	<circle class="st111" cx="561.8" cy="558.5" r="8.1"/>
	<circle class="st112" cx="997.6" cy="212.7" r="6.9"/>
	<circle class="st112" cx="641.9" cy="214.5" r="8.1"/>
	<circle class="st112" cx="1109.2" cy="314.5" r="6.9"/>
	<circle class="st111" cx="358.5" cy="396.9" r="6.9"/>
	<circle class="st111" cx="105.4" cy="607.6" r="6.9"/>
	<circle class="st112" cx="943.4" cy="42.9" r="6.9"/>
	<circle class="st110" cx="873.4" cy="362.1" r="9.2"/>
	<circle class="st110" cx="784.2" cy="846.8" r="6.9"/>
	<circle class="st110" cx="974.5" cy="290.3" r="6.9"/>
	<circle class="st112" cx="857.2" cy="187.5" r="8.1"/>
	<circle class="st112" cx="1159.8" cy="621.6" r="6.9"/>
	<circle class="st110" cx="1025.2" cy="464.7" r="5.8"/>
	<circle class="st110" cx="854.9" cy="636.7" r="10.4"/>
	<circle class="st113" cx="1137.4" cy="683.9" r="6.9"/>
	<circle class="st111" cx="275.1" cy="193" r="6.9"/>
	<circle class="st113" cx="939.5" cy="608.8" r="9.2"/>
	<circle class="st111" cx="271.5" cy="243.9" r="8.1"/>
	<circle class="st112" cx="1005.4" cy="409.9" r="6.9"/>
	<circle class="st111" cx="394.8" cy="728" r="6.9"/>
	<circle class="st112" cx="721" cy="268.9" r="8.1"/>
	<circle class="st111" cx="540.2" cy="672.4" r="6.9"/>
	<circle class="st111" cx="118.2" cy="352.7" r="6.9"/>
	<circle class="st112" cx="1240.8" cy="539.4" r="4.6"/>
	<circle class="st112" cx="756.5" cy="338.1" r="10.4"/>
	<circle class="st111" cx="439.7" cy="520.7" r="8.1"/>
	<circle class="st111" cx="324.7" cy="548.7" r="8.1"/>
	<circle class="st112" cx="631" cy="63.7" r="6.9"/>
	<circle class="st112" cx="820" cy="507.9" r="18.5"/>
	<circle class="st110" cx="671.4" cy="434.2" r="10.4"/>
	<circle class="st112" cx="805.4" cy="677.8" r="9.2"/>
	<circle class="st110" cx="1136.3" cy="398" r="6.9"/>
	<circle class="st111" cx="396.9" cy="447.5" r="10.4"/>
	<circle class="st111" cx="163.9" cy="651.4" r="6.9"/>
	<circle class="st113" cx="1019.8" cy="546.4" r="8.1"/>
	<circle class="st111" cx="165.8" cy="294.3" r="6.9"/>
	<circle class="st113" cx="907.6" cy="875.5" r="6.9"/>
	<circle class="st112" cx="766.6" cy="163.7" r="6.9"/>
	<circle class="st113" cx="879.2" cy="704.6" r="9.2"/>
	<circle class="st113" cx="728.2" cy="755.7" r="6.9"/>
	<circle class="st112" cx="602.6" cy="943.2" r="6.9"/>
	<circle class="st113" cx="1091.6" cy="735.3" r="6.9"/>
	<circle class="st112" cx="615.4" cy="645.6" r="8.1"/>
	<circle class="st111" cx="365.9" cy="493.2" r="8.1"/>
	<circle class="st112" cx="685.2" cy="871.4" r="6.9"/>
	<circle class="st111" cx="151.2" cy="549.5" r="6.9"/>
	<circle class="st112" cx="790.2" cy="780.3" r="8.1"/>
	<circle class="st112" cx="928.4" cy="728.6" r="8.1"/>
	<circle class="st110" cx="1153.1" cy="467" r="6.9"/>
	<circle class="st112" cx="466.3" cy="268.2" r="9.2"/>
</g>
<g id="node-labels">
	<text transform="matrix(1 0 0 1 840.0349 486.4605)" class="st114 st115">JudgeJeanine</text>
	<text transform="matrix(1 0 0 1 340.0109 649.0679)" class="st114 st116">OnMessageForHer</text>
	<text transform="matrix(1 0 0 1 438.5031 376.0372)" class="st114 st116">LouDobbs</text>
	<text transform="matrix(1 0 0 1 66.6223 395.9097)" class="st114 st117">LukeBrinker</text>
	<text transform="matrix(1 0 0 1 286.5602 672.6988)" class="st114 st116">SheriffClarke</text>
	<text transform="matrix(1 0 0 1 900.8718 390.3941)" class="st114 st116">megynkelly</text>
	<text transform="matrix(1 0 0 1 629.5134 317.8277)" class="st114 st116">DiamondandSilk</text>
	<text transform="matrix(1 0 0 1 750.7155 584.5504)" class="st114 st115">Morning_Joe</text>
	<text transform="matrix(1 0 0 1 942.5349 928.5308)" class="st114 st117">ABCPolitics</text>
	<text transform="matrix(1 0 0 1 311.0466 132.0289)" class="st114 st117">KLSouth</text>
	<text transform="matrix(1 0 0 1 414.5832 820.2642)" class="st114 st117">ByronYork</text>
	<text transform="matrix(1 0 0 1 635.0095 143.7813)" class="st114 st117">johnrich</text>
	<text transform="matrix(1 0 0 1 360.8923 584.7603)" class="st114 st116">RealJamesWoods</text>
	<text transform="matrix(1 0 0 1 847.4362 434.2672)" class="st114 st117">RealBenCarson</text>
	<text transform="matrix(1 0 0 1 675.1169 465.7486)" class="st114 st118">FoxNews</text>
	<text transform="matrix(1 0 0 1 1044.239 835.2486)" class="st114 st117">FoxNewsInsider</text>
	<text transform="matrix(1 0 0 1 96.3254 472.3326)" class="st114 st117">iowahawkblog</text>
	<text transform="matrix(1 0 0 1 520.1428 356.691)" class="st114 st119">DanScavino</text>
	<text transform="matrix(1 0 0 1 1121.9011 339.1221)" class="st114 st117">businessinsider</text>
	<text transform="matrix(1 0 0 1 969.4011 636.8218)" class="st114 st116">ABC</text>
	<text transform="matrix(1 0 0 1 830.8864 246.3292)" class="st114 st116">IvankaTrump</text>
	<text transform="matrix(1 0 0 1 350.0309 305.8453)" class="st114 st117">AllenWest</text>
	<text transform="matrix(1 0 0 1 683.3561 43.7769)" class="st114 st117">LaraLeaTrump</text>
	<text transform="matrix(1 0 0 1 594.5319 539.0113)" class="st114 st116">DonaldJTrumpJr</text>
	<text transform="matrix(1 0 0 1 18.343 446.9224)" class="st114 st117">PrisonPlanet</text>
	<text transform="matrix(1 0 0 1 510.1906 295.751)" class="st114 st117">RSBNetwork</text>
	<text transform="matrix(1 0 0 1 296.7819 606.7496)" class="st114 st116">BreitbartNews</text>
	<text transform="matrix(1 0 0 1 52.0671 522.7349)" class="st114 st117">aconman_</text>
	<text transform="matrix(1 0 0 1 659.7624 611.6646)" class="st114 st115">MarkHalperin</text>
	<text transform="matrix(1 0 0 1 499.7311 561.9927)" class="st114 st116">loudobbsnews</text>
	<text transform="matrix(1 0 0 1 951.2897 216.525)" class="st114 st117">piersmorgan</text>
	<text transform="matrix(1 0 0 1 554.1491 219.0147)" class="st114 st116">DRUDGE_REPORT</text>
	<text transform="matrix(1 0 0 1 1052.2585 317.4991)" class="st114 st117">FaceTheNation</text>
	<text transform="matrix(1 0 0 1 295.1096 400.7642)" class="st114 st117">ScottAdamsSays</text>
	<text transform="matrix(1 0 0 1 58.7238 611.4947)" class="st114 st117">JaredWyand</text>
	<text transform="matrix(1 0 0 1 899.7663 46.6768)" class="st114 st117">TrumpDoral</text>
	<text transform="matrix(1 0 0 1 809.8991 366.149)" class="st114 st115">FoxBusiness</text>
	<text transform="matrix(1 0 0 1 727.28 850.6412)" class="st114 st117">HuntsmanAbby</text>
	<text transform="matrix(1 0 0 1 942.9977 294.1734)" class="st114 st117">mboyle1</text>
	<text transform="matrix(1 0 0 1 815.5056 192.0372)" class="st114 st116">TrumpDC</text>
	<text transform="matrix(1 0 0 1 1108.9255 625.4058)" class="st114 st117">NYDailyNews</text>
	<text transform="matrix(1 0 0 1 1010.5495 467.2037)" class="st114 st120">NRA</text>
	<text transform="matrix(1 0 0 1 779.9645 641.3511)" class="st114 st121">foxandfriends</text>
	<text transform="matrix(1 0 0 1 1099.033 687.0308)" class="st114 st117">NBCNews</text>
	<text transform="matrix(1 0 0 1 220.5417 196.0259)" class="st114 st117">KatrinaPierson</text>
	<text transform="matrix(1 0 0 1 914.2341 613.8082)" class="st114 st115">greta</text>
	<text transform="matrix(1 0 0 1 219.6569 247.4503)" class="st114 st116">LindaSuhler</text>
	<text transform="matrix(1 0 0 1 978.5632 412.8863)" class="st114 st117">secupp</text>
	<text transform="matrix(1 0 0 1 340.1691 731.0211)" class="st114 st117">michellemalkin</text>
	<text transform="matrix(1 0 0 1 650.2438 273.3892)" class="st114 st116">CLewandowski_</text>
	<text transform="matrix(1 0 0 1 504.1008 675.4058)" class="st114 st117">mitchellvii</text>
	<text transform="matrix(1 0 0 1 70.0432 356.5543)" class="st114 st117">jamestaranto</text>
	<text transform="matrix(1 0 0 1 1210.8865 541.9019)" class="st114 st122">mike_pence</text>
	<text transform="matrix(1 0 0 1 699.361 343.8077)" class="st114 st121">EricTrump</text>
	<text transform="matrix(1 0 0 1 360.3986 524.2105)" class="st114 st116">DemsRRealRacist</text>
	<text transform="matrix(1 0 0 1 277.717 553.2974)" class="st114 st116">DailyCaller</text>
	<text transform="matrix(1 0 0 1 603.2184 66.795)" class="st114 st117">LGlick1</text>
	<text transform="matrix(1 0 0 1 649.3278 518.0416)" class="st114 st123">realDonaldTrump</text>
	<text transform="matrix(1 0 0 1 604.0075 440.0113)" class="st114 st121">seanhannity</text>
	<text transform="matrix(1 0 0 1 767.1569 682.9283)" class="st114 st115">nytimes</text>
	<text transform="matrix(1 0 0 1 1101.6062 400.9888)" class="st114 st117">BretBaier</text>
	<text transform="matrix(1 0 0 1 334.4577 452.106)" class="st114 st121">AnnCoulter</text>
	<text transform="matrix(1 0 0 1 134.3132 655.2427)" class="st114 st117">pnehlen</text>
	<text transform="matrix(1 0 0 1 969.5827 549.8941)" class="st114 st116">dcexaminer</text>
	<text transform="matrix(1 0 0 1 122.3435 298.1436)" class="st114 st117">kausmickey</text>
	<text transform="matrix(1 0 0 1 869.613 878.5572)" class="st114 st117">chucktodd</text>
	<text transform="matrix(1 0 0 1 725.4499 166.754)" class="st114 st117">JTSantucci</text>
	<text transform="matrix(1 0 0 1 802.111 709.7437)" class="st114 st115">washingtonpost</text>
	<text transform="matrix(1 0 0 1 697.1989 758.7857)" class="st114 st117">JoeNBC</text>
	<text transform="matrix(1 0 0 1 555.8991 947.0679)" class="st114 st117">newtgingrich</text>
	<text transform="matrix(1 0 0 1 1037.6013 738.4)" class="st114 st117">ThisWeekABC</text>
	<text transform="matrix(1 0 0 1 585.152 650.0875)" class="st114 st116">politico</text>
	<text transform="matrix(1 0 0 1 303.2883 497.6773)" class="st114 st116">gatewaypundit</text>
	<text transform="matrix(1 0 0 1 631.5475 874.4664)" class="st114 st117">GeraldoRivera</text>
	<text transform="matrix(1 0 0 1 89.695 553.4068)" class="st114 st117">TheLastRefuge2</text>
	<text transform="matrix(1 0 0 1 744.8796 784.816)" class="st114 st116">jaketapper</text>
	<text transform="matrix(1 0 0 1 907.3815 732.147)" class="st114 st116">CNN</text>
	<text transform="matrix(1 0 0 1 1120.8552 470.0005)" class="st114 st117">TheView</text>
	<text transform="matrix(1 0 0 1 367.9977 273.418)" class="st114 st115">WayneDupreeShow</text>
</g>
</svg>
