<?xml version="1.0" encoding="utf-8"?>
<!-- Generator: Adobe Illustrator 20.0.0, SVG Export Plug-In . SVG Version: 6.00 Build 0)  -->
<svg version="1.1" id="Layer_1" xmlns="http://www.w3.org/2000/svg" xmlns:xlink="http://www.w3.org/1999/xlink" x="0px" y="0px"
	 viewBox="0 0 1290 805.8" style="enable-background:new 0 0 1290 805.8;" xml:space="preserve">
<style type="text/css">
	.st0{fill:none;stroke:#D27CCE;stroke-width:1.8446;}
	.st1{fill:none;stroke:#9D9482;stroke-width:2.027027e-02;}
	.st2{fill:none;stroke:#D27CCE;stroke-width:0.3851;}
	.st3{fill:none;stroke:#9D9482;stroke-width:0.2027;}
	.st4{fill:none;stroke:#D27CCE;stroke-width:1.0135;}
	.st5{fill:none;}
	.st6{fill:none;stroke:#D27CCE;stroke-width:2.027027e-02;}
	.st7{fill:none;stroke:#D27CCE;stroke-width:6.081081e-02;}
	.st8{fill:none;stroke:#D27CCE;stroke-width:4.054054e-02;}
	.st9{fill:none;stroke:#D27CCE;stroke-width:0.2432;}
	.st10{fill:none;stroke:#9D9482;stroke-width:6.081081e-02;}
	.st11{fill:none;stroke:#D27CCE;stroke-width:8.108108e-02;}
	.st12{fill:none;stroke:#D27CCE;stroke-width:0.1014;}
	.st13{fill:none;stroke:#D27CCE;stroke-width:0.1216;}
	.st14{fill:none;stroke:#9D9482;stroke-width:0.1014;}
	.st15{fill:none;stroke:#9D9482;stroke-width:0.223;}
	.st16{fill:none;stroke:#9D9482;stroke-width:8.108108e-02;}
	.st17{fill:none;stroke:#68AD36;stroke-width:2.027027e-02;}
	.st18{fill:none;stroke:#68AD36;stroke-width:0.4865;}
	.st19{fill:none;stroke:#68AD36;stroke-width:0.1419;}
	.st20{fill:none;stroke:#D27CCE;stroke-width:0.1419;}
	.st21{fill:none;stroke:#D27CCE;stroke-width:3.4865;}
	.st22{fill:none;stroke:#D27CCE;stroke-width:0.4662;}
	.st23{fill:none;stroke:#D27CCE;stroke-width:0.1824;}
	.st24{fill:none;stroke:#D27CCE;stroke-width:2.7973;}
	.st25{fill:none;stroke:#D27CCE;stroke-width:0.5878;}
	.st26{fill:none;stroke:#D27CCE;stroke-width:0.1622;}
	.st27{fill:none;stroke:#68AD36;stroke-width:8.108108e-02;}
	.st28{fill:none;stroke:#D27CCE;stroke-width:0.2027;}
	.st29{fill:none;stroke:#E87886;stroke-width:4.054054e-02;}
	.st30{fill:none;stroke:#9D9482;stroke-width:0.1824;}
	.st31{fill:none;stroke:#D27CCE;stroke-width:0.973;}
	.st32{fill:none;stroke:#D27CCE;stroke-width:1.6014;}
	.st33{fill:none;stroke:#9D9482;stroke-width:4.054054e-02;}
	.st34{fill:none;stroke:#6999D4;stroke-width:6.081081e-02;}
	.st35{fill:none;stroke:#E87886;stroke-width:3.2838;}
	.st36{fill:none;stroke:#FF743E;stroke-width:0.5473;}
	.st37{fill:none;stroke:#B3903A;stroke-width:8.108108e-02;}
	.st38{fill:none;stroke:#FF743E;stroke-width:0.7297;}
	.st39{fill:none;stroke:#FF743E;stroke-width:0.1622;}
	.st40{fill:none;stroke:#FF743E;stroke-width:1.1757;}
	.st41{fill:none;stroke:#E87886;stroke-width:0.3649;}
	.st42{fill:none;stroke:#7F958C;stroke-width:0.3649;}
	.st43{fill:none;stroke:#FF743E;stroke-width:1.5203;}
	.st44{fill:none;stroke:#FF743E;stroke-width:1.9662;}
	.st45{fill:none;stroke:#B3903A;stroke-width:4.054054e-02;}
	.st46{fill:none;stroke:#FF743E;stroke-width:0.2635;}
	.st47{fill:none;stroke:#FF743E;stroke-width:0.4865;}
	.st48{fill:none;stroke:#FF743E;stroke-width:0.8108;}
	.st49{fill:none;stroke:#D27CCE;stroke-width:1.1554;}
	.st50{fill:none;stroke:#6999D4;stroke-width:0.1014;}
	.st51{fill:none;stroke:#6999D4;stroke-width:2.027027e-02;}
	.st52{fill:none;stroke:#6999D4;stroke-width:5.6554;}
	.st53{fill:none;stroke:#6999D4;stroke-width:0.1824;}
	.st54{fill:none;stroke:#6999D4;stroke-width:8.108108e-02;}
	.st55{fill:none;stroke:#34B288;stroke-width:6.081081e-02;}
	.st56{fill:none;stroke:#6999D4;stroke-width:0.5473;}
	.st57{fill:none;stroke:#34B288;stroke-width:8.108108e-02;}
	.st58{fill:none;stroke:#00B7DA;stroke-width:2.1081;}
	.st59{fill:none;stroke:#00B7DA;stroke-width:0.6892;}
	.st60{fill:none;stroke:#00B7DA;stroke-width:1.8446;}
	.st61{fill:none;stroke:#00B7DA;stroke-width:2.027027e-02;}
	.st62{fill:none;stroke:#6999D4;stroke-width:4.054054e-02;}
	.st63{fill:none;stroke:#00B7DA;stroke-width:1.5203;}
	.st64{fill:none;stroke:#00B7DA;stroke-width:2.6351;}
	.st65{fill:none;stroke:#D27CCE;stroke-width:1.3784;}
	.st66{fill:none;stroke:#9D9482;stroke-width:0.1622;}
	.st67{fill:none;stroke:#D27CCE;stroke-width:0.223;}
	.st68{fill:none;stroke:#9D9482;stroke-width:0.1216;}
	.st69{fill:none;stroke:#D27CCE;stroke-width:0.4054;}
	.st70{fill:none;stroke:#D27CCE;stroke-width:1.0338;}
	.st71{fill:none;stroke:#9D9482;stroke-width:15;}
	.st72{fill:none;stroke:#B3903A;stroke-width:1.1959;}
	.st73{fill:none;stroke:#B3903A;stroke-width:2.027027e-02;}
	.st74{fill:none;stroke:#68AD36;stroke-width:0.1824;}
	.st75{fill:none;stroke:#68AD36;stroke-width:0.6689;}
	.st76{fill:none;stroke:#68AD36;stroke-width:0.2027;}
	.st77{fill:none;stroke:#9D9482;stroke-width:1.5;}
	.st78{fill:none;stroke:#68AD36;stroke-width:1.1757;}
	.st79{fill:none;stroke:#68AD36;stroke-width:6.081081e-02;}
	.st80{fill:none;stroke:#34B288;stroke-width:2.027027e-02;}
	.st81{fill:none;stroke:#68AD36;stroke-width:0.1622;}
	.st82{fill:none;stroke:#68AD36;stroke-width:0.3446;}
	.st83{fill:none;stroke:#68AD36;stroke-width:0.7703;}
	.st84{fill:none;stroke:#68AD36;stroke-width:0.1014;}
	.st85{fill:none;stroke:#68AD36;stroke-width:4.054054e-02;}
	.st86{fill:none;stroke:#68AD36;stroke-width:2.8784;}
	.st87{fill:none;stroke:#34B288;stroke-width:4.054054e-02;}
	.st88{fill:none;stroke:#B3903A;stroke-width:0.223;}
	.st89{fill:none;stroke:#68AD36;stroke-width:3.8919;}
	.st90{fill:none;stroke:#68AD36;stroke-width:0.2635;}
	.st91{fill:none;stroke:#9D9482;stroke-width:0.3446;}
	.st92{fill:none;stroke:#B3903A;stroke-width:0.4054;}
	.st93{fill:none;stroke:#9D9482;stroke-width:0.4662;}
	.st94{fill:none;stroke:#68AD36;stroke-width:0.1216;}
	.st95{fill:none;stroke:#9D9482;stroke-width:0.8311;}
	.st96{fill:none;stroke:#68AD36;stroke-width:0.3041;}
	.st97{fill:none;stroke:#9D9482;stroke-width:0.6081;}
	.st98{fill:none;stroke:#68AD36;stroke-width:0.2838;}
	.st99{fill:none;stroke:#B3903A;stroke-width:0.3851;}
	.st100{fill:none;stroke:#B3903A;stroke-width:0.2635;}
	.st101{fill:none;stroke:#B3903A;stroke-width:0.1014;}
	.st102{fill:none;stroke:#9D9482;stroke-width:0.1419;}
	.st103{fill:none;stroke:#9D9482;stroke-width:4.5;}
	.st104{fill:none;stroke:#B3903A;stroke-width:0.2027;}
	.st105{fill:none;stroke:#9D9482;stroke-width:0.2635;}
	.st106{fill:none;stroke:#68AD36;stroke-width:0.3243;}
	.st107{fill:none;stroke:#68AD36;stroke-width:0.3649;}
	.st108{fill:none;stroke:#68AD36;stroke-width:0.5473;}
	.st109{fill:none;stroke:#68AD36;stroke-width:0.8108;}
	.st110{fill:none;stroke:#68AD36;stroke-width:0.223;}
	.st111{fill:none;stroke:#68AD36;stroke-width:0.4257;}
	.st112{fill:none;stroke:#9D9482;stroke-width:0.3243;}
	.st113{fill:none;stroke:#9D9482;stroke-width:0.3041;}
	.st114{fill:none;stroke:#68AD36;stroke-width:0.527;}
	.st115{fill:none;stroke:#9D9482;stroke-width:0.4054;}
	.st116{fill:none;stroke:#B3903A;stroke-width:0.1419;}
	.st117{fill:none;stroke:#D27CCE;stroke-width:1.0946;}
	.st118{fill:none;stroke:#D27CCE;stroke-width:2.3108;}
	.st119{fill:none;stroke:#D27CCE;stroke-width:0.2635;}
	.st120{fill:none;stroke:#E87886;stroke-width:2.027027e-02;}
	.st121{fill:none;stroke:#D27CCE;stroke-width:0.7095;}
	.st122{fill:none;stroke:#D27CCE;stroke-width:4.6014;}
	.st123{fill:none;stroke:#D27CCE;stroke-width:0.3446;}
	.st124{fill:none;stroke:#D27CCE;stroke-width:2.7365;}
	.st125{fill:none;stroke:#9D9482;stroke-width:0.4865;}
	.st126{fill:none;stroke:#9D9482;stroke-width:0.4459;}
	.st127{fill:none;stroke:#D27CCE;stroke-width:0.9122;}
	.st128{fill:none;stroke:#D27CCE;stroke-width:0.6081;}
	.st129{fill:none;stroke:#D27CCE;stroke-width:0.6892;}
	.st130{fill:none;stroke:#D27CCE;stroke-width:3.0811;}
	.st131{fill:none;stroke:#D27CCE;stroke-width:0.3041;}
	.st132{fill:none;stroke:#9D9482;stroke-width:0.6486;}
	.st133{fill:none;stroke:#D27CCE;stroke-width:0.5676;}
	.st134{fill:none;stroke:#D27CCE;stroke-width:0.3243;}
	.st135{fill:#68AD36;stroke:#000000;}
	.st136{fill:#D27CCE;stroke:#000000;}
	.st137{fill:#FF743E;stroke:#000000;}
	.st138{fill:#00B7DA;stroke:#000000;}
	.st139{font-family:'ArialMT';}
	.st140{font-size:14.6034px;}
	.st141{font-size:43.8101px;}
	.st142{font-size:20.9924px;}
	.st143{font-size:16.4288px;}
	.st144{font-size:18.2542px;}
	.st145{font-size:12.778px;}
	.st146{font-size:30.1195px;}
	.st147{font-size:24.6432px;}
	.st148{font-size:19.1669px;}
	.st149{font-size:22.8178px;}
	.st150{font-size:26.4686px;}
</style>
<g id="edges">
	<path class="st0" d="M713.4,261.9c-55.3,78-255.3,112.2-333.3,56.9"/>
	<path class="st1" d="M713.4,261.9c15.1,27.4-3.3,91.1-30.7,106.3"/>
	<path class="st2" d="M713.4,261.9c22,4.4,48.2,44,43.8,66"/>
	<path class="st3" d="M713.4,261.9c-13.2,45.2-100.9,93.2-146.2,80"/>
	<path class="st4" d="M713.4,261.9c-87.2,17.9-245-86-262.9-173.2"/>
	<path class="st5" d="M713.4,261.9c60.9,8.1,140,111.6,131.9,172.4"/>
	<path class="st6" d="M713.4,261.9c-48.9,9.1-136-50.6-145.1-99.6"/>
	<path class="st7" d="M713.4,261.9c-87.1,70.7-323.7,46.1-394.4-41"/>
	<path class="st1" d="M713.4,261.9C795.3,226.8,970.9,297,1006,379"/>
	<path class="st8" d="M713.4,261.9c23.6-12,76.8,5.4,88.8,29"/>
	<path class="st9" d="M713.4,261.9c-45.6,79.8-233.7,131.1-313.5,85.6"/>
	<path class="st6" d="M713.4,261.9C693.6,326.1,567.5,392.8,503.2,373"/>
	<path class="st10" d="M713.4,261.9c79.8,7.6,188.2,138.7,180.6,218.6"/>
	<path class="st5" d="M713.4,261.9c8.8,60.6-68.9,164.8-129.5,173.6"/>
	<path class="st11" d="M713.4,261.9c-52.2,2.8-134.7-71.3-137.5-123.4"/>
	<path class="st12" d="M713.4,261.9c-34,44.3-151.4,59.8-195.7,25.9"/>
	<path class="st13" d="M713.4,261.9c-15.3-19-9.7-70.4,9.3-85.7"/>
	<path class="st14" d="M713.4,261.9c77.9-43.3,259.8,8.5,303.2,86.4"/>
	<path class="st10" d="M713.4,261.9c123.1-63.9,403.6,24.7,467.5,147.8"/>
	<path class="st12" d="M713.4,261.9c-19,40.6-108.6,73-149.2,53.9"/>
	<path class="st7" d="M713.4,261.9c45.2-8.4,125.6,46.6,134,91.8"/>
	<path class="st15" d="M713.4,261.9c112.2-43.5,345.7,59.4,389.3,171.6"/>
	<path class="st5" d="M713.4,261.9c-35.1,10-102.7-27.8-112.6-62.9"/>
	<path class="st5" d="M713.4,261.9c55.7-54.4,220.8-52.5,275.2,3.1"/>
	<path class="st16" d="M713.4,261.9C815.3,238.8,1002.9,357,1026,459"/>
	<path class="st6" d="M713.4,261.9c57.1-34.1,193.8,0.3,228,57.3"/>
	<path class="st5" d="M54.2,607.9c41.5-79.5,223-136.5,302.5-95"/>
	<path class="st17" d="M54.2,607.9c59.2-107.1,308.8-179,415.9-119.8"/>
	<path class="st18" d="M54.2,607.9c77-73.4,302.6-68,376,9"/>
	<path class="st19" d="M54.2,607.9c75.3-84.5,315-98.4,399.5-23.1"/>
	<path class="st5" d="M54.2,607.9c99.5-98.5,396.5-97.2,495.1,2.3"/>
	<path class="st9" d="M367.2,270.3c12.3,7.1,20,36.2,12.9,48.5"/>
	<path class="st20" d="M367.2,270.3c18.6-61.8,139.3-126.6,201.1-108"/>
	<path class="st21" d="M319,220.9c31.8,7.4,68.4,66.1,61.1,97.9"/>
	<path class="st8" d="M319,220.9c53.6-37.8,190.6-14.1,228.4,39.4"/>
	<path class="st5" d="M319,220.9c34.9-67.9,189-117.3,256.9-82.4"/>
	<path class="st22" d="M319,220.9c-0.1-52.7,78.7-132,131.5-132.2"/>
	<path class="st8" d="M319,220.9c-21.8-6.3-45.2-48.4-38.9-70.2"/>
	<path class="st23" d="M319,220.9c19.5,0.3,48.4,29.9,48.1,49.4"/>
	<path class="st5" d="M319,220.9c109-66.2,371.9-2.1,438.2,107"/>
	<path class="st6" d="M319,220.9c11.4,17.3,2.6,60.4-14.7,71.8"/>
	<path class="st5" d="M319,220.9c-13.4,3.9-39.4-10.3-43.3-23.7"/>
	<path class="st7" d="M319,220.9c20.2-83.4,175.8-178.2,259.2-158"/>
	<path class="st24" d="M319,220.9c38.1-61.6,187.7-96.7,249.3-58.5"/>
	<path class="st11" d="M342.9,112.1c37.2-56.9,178.4-86.5,235.3-49.3"/>
	<path class="st25" d="M304.3,292.7c20.4-9.9,65.8,5.7,75.8,26.1"/>
	<path class="st26" d="M304.3,292.7c-25.8,7.9-76.5-19-84.4-44.8"/>
	<path class="st5" d="M304.3,292.7c15.2,42-25,127.6-67,142.8"/>
	<path class="st6" d="M304.3,292.7c-11.4-17.3-2.6-60.4,14.7-71.8"/>
	<path class="st7" d="M304.3,292.7c-5,28.4-55.1,63.5-83.5,58.5"/>
	<path class="st17" d="M457.5,545.2c25.8-35.8,118.4-50.9,154.2-25"/>
	<path class="st27" d="M457.5,545.2c7.2,8.7,4.9,32.4-3.8,39.5"/>
	<path class="st7" d="M380.1,318.8c-29.8-28.1-32.3-115.1-4.2-144.9"/>
	<path class="st28" d="M380.1,318.8c55.3-78,255.3-112.2,333.3-56.9"/>
	<path class="st20" d="M380.1,318.8c21.3-33.7,103.9-52.3,137.6-31"/>
	<path class="st11" d="M380.1,318.8c-12.3-7.1-20-36.2-12.9-48.5"/>
	<path class="st29" d="M380.1,318.8c97.6,4.3,237.6,157.3,233.2,254.9"/>
	<path class="st6" d="M380.1,318.8c-46.2,17.9-142.3-24.7-160.1-70.9"/>
	<path class="st12" d="M380.1,318.8c-31.8-7.4-68.4-66.1-61.1-97.9"/>
	<path class="st30" d="M380.1,318.8c60.8,29.8,107.2,165.7,77.4,226.5"/>
	<path class="st10" d="M380.1,318.8c-7.4,123-202.9,296.4-325.9,289.1"/>
	<path class="st7" d="M380.1,318.8c-48.8-33.9-71.1-157.9-37.2-206.6"/>
	<path class="st8" d="M380.1,318.8c42.3-76.5,220.7-127.8,297.2-85.5"/>
	<path class="st11" d="M380.1,318.8c78.8-90,332.1-106.7,422-27.9"/>
	<path class="st31" d="M380.1,318.8c-20.4,9.9-65.8-5.7-75.8-26.1"/>
	<path class="st9" d="M380.1,318.8c9.7,1.8,21.6,19,19.8,28.7"/>
	<path class="st6" d="M380.1,318.8c-25.4,38.3-120.9,57.8-159.3,32.4"/>
	<path class="st2" d="M380.1,318.8c-9-20.1,7.8-63.8,27.9-72.8"/>
	<path class="st5" d="M380.1,318.8c-30.3-42-12.7-150.6,29.4-180.9"/>
	<path class="st32" d="M380.1,318.8c77.2-73.6,303.5-68.2,377.1,9.1"/>
	<path class="st33" d="M380.1,318.8c98.5-40.9,307.6,45.5,348.5,144"/>
	<path class="st34" d="M380.1,318.8c17.8,18.2,17.2,72.3-1,90.1"/>
	<path class="st6" d="M380.1,318.8c-5.5,30.1-58.9,67-89,61.4"/>
	<path class="st6" d="M380.1,318.8c48.3-94,261.6-162.6,355.6-114.3"/>
	<path class="st8" d="M380.1,318.8c7.4-45.9,87.3-103.6,133.1-96.2"/>
	<path class="st1" d="M380.1,318.8c86.6-6,225.6,114.8,231.6,201.5"/>
	<path class="st35" d="M613.3,573.7c-97.6-4.3-237.6-157.3-233.2-254.9"/>
	<path class="st5" d="M613.3,573.7c-76.3-38-133.7-209.6-95.7-285.9"/>
	<path class="st36" d="M613.3,573.7c78.1-22.8,229.4,60,252.3,138"/>
	<path class="st37" d="M613.3,573.7c-11-10.4-12-42.4-1.6-53.4"/>
	<path class="st38" d="M613.3,573.7c48.2,13.1,100.8,105,87.6,153.2"/>
	<path class="st39" d="M613.3,573.7c15.1,34.7-14.3,109.4-49,124.5"/>
	<path class="st40" d="M613.3,573.7c23.8-35.8,113.4-53.8,149.2-30"/>
	<path class="st5" d="M613.3,573.7c21.6,51-22.6,159.8-73.6,181.4"/>
	<path class="st41" d="M613.3,573.7c-20.4-77.9,65.9-225.4,143.9-245.8"/>
	<path class="st42" d="M613.3,573.7c-58.7,73.3-256.7,95.2-330,36.5"/>
	<path class="st43" d="M613.3,573.7c-10.4,36.9-81.4,76.5-118.2,66"/>
	<path class="st44" d="M613.3,573.7c11.2,26.2-11.3,82.2-37.5,93.4"/>
	<path class="st5" d="M613.3,573.7c18.8-8.2,59.2,7.7,67.3,26.5"/>
	<path class="st45" d="M613.3,573.7c15.5,10.4,23.2,49.2,12.9,64.7"/>
	<path class="st46" d="M613.3,573.7c46.9-0.8,118.6,68.3,119.4,115.2"/>
	<path class="st47" d="M613.3,573.7C582,642,432.3,697.4,364,666.1"/>
	<path class="st48" d="M613.3,573.7c-5.6,66.8-114.1,158.6-180.9,153.1"/>
	<path class="st49" d="M220.9,351.2c25.4-38.3,120.9-57.8,159.3-32.4"/>
	<path class="st5" d="M220.9,351.2c-2.2,25.7-44.1,61-69.8,58.8"/>
	<path class="st50" d="M220.9,351.2c-11.8,55.1-112.2,120.1-167.3,108.4"/>
	<path class="st51" d="M220.9,351.2c-21.7,33.8-105,51.9-138.8,30.2"/>
	<path class="st52" d="M379.1,408.8c-17.8-18.2-17.2-72.3,1-90.1"/>
	<path class="st53" d="M379.1,408.8c3.5-51.9,86.7-124.6,138.6-121.1"/>
	<path class="st54" d="M379.1,408.8c-30.1-25.3-37.2-108.4-11.9-138.5"/>
	<path class="st34" d="M379.1,408.8c-49.6-25.6-85.6-138.4-60.1-188"/>
	<path class="st51" d="M379.1,408.8c32-36.8,135.1-44.1,171.9-12.2"/>
	<path class="st55" d="M379.1,408.8c-15.6,46.8-109.2,93.6-156,78"/>
	<path class="st56" d="M379.1,408.8c59.4-91.8,286.3-140.4,378.1-81"/>
	<path class="st5" d="M379.1,408.8c24.2-51,137.1-91.2,188.1-66.9"/>
	<path class="st57" d="M379.1,408.8c12.2,9,17.1,41,8,53.2"/>
	<path class="st58" d="M379.1,408.8C363.7,471.3,247,541.9,184.5,526.6"/>
	<path class="st54" d="M379.1,408.8c18.4-55.6,129.5-111.4,185.1-93"/>
	<path class="st59" d="M379.1,408.8c-45.4,45.8-182.2,46.6-228,1.2"/>
	<path class="st5" d="M379.1,408.8c66.8-67.4,268-68.3,335.4-1.5"/>
	<path class="st60" d="M379.1,408.8c-55,75.3-250.3,105.7-325.5,50.7"/>
	<path class="st61" d="M379.1,408.8c15.5,44.4-28,134.2-72.4,149.7"/>
	<path class="st62" d="M379.1,408.8c-23.3,11.9-76.1-5.3-88-28.6"/>
	<path class="st63" d="M379.1,408.8c-64.9,53.9-243.1,37.4-297-27.5"/>
	<path class="st64" d="M379.1,408.8c21.1,59.4-36.3,180.2-95.8,201.4"/>
	<path class="st5" d="M379.1,408.8c-1.5,71.8-111.4,177.4-183.3,175.9"/>
	<path class="st5" d="M379.1,408.8c46.3-35.6,169.2-19.6,204.8,26.7"/>
	<path class="st25" d="M220,247.9c46.2-17.9,142.3,24.7,160.1,70.9"/>
	<path class="st6" d="M220,247.9c37.2-38,150.1-39.2,188.1-1.9"/>
	<path class="st6" d="M220,247.9c25.8-7.9,76.5,19,84.4,44.8"/>
	<path class="st65" d="M735.7,204.4c-48.3,94-261.6,162.6-355.6,114.3"/>
	<path class="st66" d="M735.7,204.4c22.1,43.3-9.6,141.5-53,163.7"/>
	<path class="st67" d="M735.7,204.4c29,20.4,41.9,94.4,21.5,123.4"/>
	<path class="st68" d="M735.7,204.4c-6.2,61.2-107.3,143.6-168.5,137.4"/>
	<path class="st12" d="M735.7,204.4c-40.9,48.1-174.3,59-222.4,18.1"/>
	<path class="st28" d="M735.7,204.4c81.5-44.4,270.4,11.3,314.8,92.9"/>
	<path class="st6" d="M735.7,204.4c30.6,4,70.5,55.9,66.5,86.4"/>
	<path class="st6" d="M735.7,204.4c-13.4-36.9,21.9-112.3,58.8-125.7"/>
	<path class="st6" d="M735.7,204.4c53.9-74.2,246.1-104.7,320.4-50.8"/>
	<path class="st5" d="M735.7,204.4c-59.8,3.2-154.3-81.8-157.5-141.6"/>
	<path class="st5" d="M735.7,204.4c-60.5,86.9-281.6,126.4-368.5,65.9"/>
	<path class="st69" d="M735.7,204.4c1.5,75.4-109.3,190.7-184.7,192.2"/>
	<path class="st8" d="M735.7,204.4c-8.2-3.1-16-20-13-28.2"/>
	<path class="st5" d="M735.7,204.4c84.9-27.4,253.5,58.9,280.9,143.9"/>
	<path class="st11" d="M735.7,204.4c-12,56.6-114.9,123.4-171.5,111.4"/>
	<path class="st5" d="M735.7,204.4c102.6-52.8,335.6,21.9,388.4,124.5"/>
	<path class="st30" d="M735.7,204.4c36.3,44.8,23.6,166.5-21.3,202.9"/>
	<path class="st7" d="M735.7,204.4c-26.5,48.8-139.4,82.3-188.2,55.9"/>
	<path class="st5" d="M735.7,204.4c19.7-61,140.8-123,201.8-103.3"/>
	<path class="st11" d="M735.7,204.4c18.6-50.5,122.3-98.3,172.8-79.7"/>
	<path class="st13" d="M735.7,204.4c52.1-49.9,205-46.7,254.9,5.4"/>
	<path class="st5" d="M735.7,204.4c119.2-27.6,339.4,109.8,367,229"/>
	<path class="st5" d="M735.7,204.4c126.4-66.2,415.4,24.2,481.6,150.6"/>
	<path class="st5" d="M735.7,204.4C709.2,170.1,721,78.8,755.3,52.3"/>
	<path class="st70" d="M517.7,287.8c-21.3,33.7-103.9,52.3-137.6,31"/>
	<path class="st5" d="M517.7,287.8c-21.9-58.7,33.2-179.6,91.9-201.5"/>
	<path class="st5" d="M517.7,287.8c55.9-39.9,199.6-15.8,239.5,40.1"/>
	<path class="st5" d="M517.7,287.8c-1.1-34.4,48.7-87.6,83.1-88.7"/>
	<path class="st27" d="M611.7,520.2c64.5-60.6,252.3-54.7,312.9,9.8"/>
	<path class="st71" d="M611.7,520.2c-86.6,6-225.6-114.8-231.6-201.5"/>
	<path class="st72" d="M611.7,520.2c11,10.4,12,42.4,1.6,53.4"/>
	<path class="st19" d="M611.7,520.2c11.9-34.9,82.1-69.3,116.9-57.4"/>
	<path class="st73" d="M611.7,520.2c89.1-12.5,241.4,102.4,253.9,191.5"/>
	<path class="st74" d="M611.7,520.2c-56.6,33.3-191.3-1.6-224.6-58.2"/>
	<path class="st27" d="M611.7,520.2c81.4-51.6,281-7,332.6,74.4"/>
	<path class="st75" d="M611.7,520.2c-16.2-44.6,26.4-135.9,71-152.1"/>
	<path class="st76" d="M611.7,520.2c32.6,61.3-10.6,202.2-71.9,234.8"/>
	<path class="st77" d="M611.7,520.2c-9.4-67.6,77.9-183,145.5-192.4"/>
	<path class="st78" d="M611.7,520.2c-44.6-26.8-71.2-133.8-44.5-178.3"/>
	<path class="st79" d="M611.7,520.2c-34.7,21.9-119.6,2.6-141.5-32.1"/>
	<path class="st79" d="M611.7,520.2c58.2-4,151.3,77.4,155.3,135.5"/>
	<path class="st27" d="M611.7,520.2c29.5-63.9,169.7-115.4,233.6-85.9"/>
	<path class="st80" d="M611.7,520.2c-53.3,68.7-236.3,91.6-305,38.3"/>
	<path class="st81" d="M611.7,520.2c-52.5,49.5-205.5,45.1-255-7.3"/>
	<path class="st10" d="M611.7,520.2c-79.2-39.8-138.3-218.5-98.5-297.7"/>
	<path class="st5" d="M611.7,520.2c5.4,77.2-102.1,201.1-179.3,206.5"/>
	<path class="st82" d="M611.7,520.2c13.9-70.5,140.5-155.5,211-141.6"/>
	<path class="st79" d="M611.7,520.2c42.7-48.1,178.8-56.3,226.9-13.6"/>
	<path class="st16" d="M611.7,520.2c-118.4-1.3-294-180.9-292.7-299.4"/>
	<path class="st83" d="M611.7,520.2C662.3,413.1,898.9,328.4,1006,379"/>
	<path class="st84" d="M611.7,520.2c67.7-73.2,279-81.5,352.2-13.8"/>
	<path class="st79" d="M611.7,520.2c105.4-65.2,361.2-4.9,426.4,100.5"/>
	<path class="st85" d="M611.7,520.2c56.1-13.8,160.9,49.6,174.8,105.7"/>
	<path class="st86" d="M611.7,520.2c-25.8,35.8-118.4,50.9-154.2,25"/>
	<path class="st16" d="M611.7,520.2C516.1,506.1,393.9,341.5,408,245.9"/>
	<path class="st68" d="M611.7,520.2c-7.8-84,106.5-221.6,190.4-229.3"/>
	<path class="st85" d="M611.7,520.2c-17,55.6-125.8,113.6-181.5,96.6"/>
	<path class="st87" d="M611.7,520.2c-84.2,86.7-340.5,90.5-427.2,6.3"/>
	<path class="st68" d="M611.7,520.2c-76.9,7.8-204-95.9-211.8-172.8"/>
	<path class="st88" d="M611.7,520.2c-20.4,78.7-169,166.2-247.7,145.8"/>
	<path class="st68" d="M611.7,520.2c-51.1-7.8-116.2-96.1-108.5-147.2"/>
	<path class="st5" d="M611.7,520.2c48.5-64.4,217.8-88.3,282.2-39.8"/>
	<path class="st89" d="M611.7,520.2c-18.7,44.5-113.5,83.2-158,64.5"/>
	<path class="st90" d="M611.7,520.2c-22.5-11.4-39.2-62.2-27.9-84.7"/>
	<path class="st84" d="M611.7,520.2c34.5-80.5,207-149.6,287.5-115.1"/>
	<path class="st91" d="M611.7,520.2c-65.3-27.7-121.7-167.2-94-232.5"/>
	<path class="st15" d="M611.7,520.2c-98.9-1.1-245.6-151-244.5-249.9"/>
	<path class="st92" d="M611.7,520.2c59.2,23.5,112.8,147.5,89.3,206.6"/>
	<path class="st3" d="M611.7,520.2c-31.3-72,29.7-227,101.7-258.3"/>
	<path class="st93" d="M611.7,520.2c-36.8-12.6-73.3-86.7-60.7-123.6"/>
	<path class="st90" d="M611.7,520.2c46.6-115.3,289.5-218.5,404.9-171.9"/>
	<path class="st84" d="M611.7,520.2c92.4-29.1,274.6,66,303.7,158.4"/>
	<path class="st94" d="M611.7,520.2c26.5,20.7,35.2,91.6,14.5,118.2"/>
	<path class="st19" d="M611.7,520.2c10.3-21.9,58.6-39.3,80.5-28.9"/>
	<path class="st5" d="M611.7,520.2c-22.1-1.3-53.4-36.5-52-58.7"/>
	<path class="st95" d="M611.7,520.2c-50.4-31.4-78.9-154-47.5-204.4"/>
	<path class="st96" d="M611.7,520.2c29.8,2.2,71.2,50.1,69,79.9"/>
	<path class="st84" d="M611.7,520.2c-2-43.1,59.6-110.9,102.7-112.9"/>
	<path class="st97" d="M611.7,520.2c13.8-80.4,155.3-180.4,235.7-166.5"/>
	<path class="st76" d="M611.7,520.2c-91.8,57.9-316.4,7.1-374.3-84.8"/>
	<path class="st96" d="M611.7,520.2c80.8-115.5,375.4-167.6,490.9-86.8"/>
	<path class="st90" d="M611.7,520.2c48.9-29.4,166.4,0,195.8,48.9"/>
	<path class="st84" d="M611.7,520.2C699.8,366.1,1063.1,267,1217.3,355"/>
	<path class="st98" d="M611.7,520.2c90.6-38.9,284.9,38.6,323.8,129.2"/>
	<path class="st99" d="M611.7,520.2c34.9-25.5,125.4-11.4,150.9,23.4"/>
	<path class="st16" d="M611.7,520.2c-107,16-291.4-120.6-307.4-227.6"/>
	<path class="st100" d="M611.7,520.2c0.6,47.2-69.4,118.9-116.6,119.5"/>
	<path class="st101" d="M611.7,520.2c22.2,36.5,0.7,124.6-35.9,146.8"/>
	<path class="st80" d="M611.7,520.2c-68.8,24.2-208.4-42.6-232.6-111.4"/>
	<path class="st17" d="M611.7,520.2c5.5,30.5-31.9,84.4-62.4,90"/>
	<path class="st5" d="M611.7,520.2c26.1,45-2.3,151.8-47.4,177.9"/>
	<path class="st102" d="M611.7,520.2c25.7-106.1,223.5-226.7,329.6-201"/>
	<path class="st27" d="M728.6,462.8c52.6-25.8,170.2,14.6,196,67.2"/>
	<path class="st103" d="M728.6,462.8c-98.5,40.9-307.6-45.5-348.5-144"/>
	<path class="st81" d="M728.6,462.8c-28.1-9.8-55.7-66.5-45.9-94.7"/>
	<path class="st104" d="M728.6,462.8c-0.9,45.2-70.1,111.7-115.3,110.8"/>
	<path class="st81" d="M728.6,462.8c69.5-16.8,198.9,62.3,215.7,131.8"/>
	<path class="st105" d="M728.6,462.8c-21.3-32.7-4.1-113.7,28.6-135"/>
	<path class="st106" d="M728.6,462.8c-56.5,8.1-153.3-64.4-161.4-120.9"/>
	<path class="st85" d="M728.6,462.8c46.3,30.9,69.3,146.7,38.4,192.9"/>
	<path class="st106" d="M728.6,462.8c17.6-29,87.7-46.1,116.7-28.5"/>
	<path class="st5" d="M728.6,462.8c-82.2,130.9-401.9,204.1-532.8,121.9"/>
	<path class="st74" d="M728.6,462.8C632.3,568.7,329,583.1,223,486.8"/>
	<path class="st84" d="M728.6,462.8c2-35.7,58.4-86.2,94.1-84.2"/>
	<path class="st5" d="M728.6,462.8c31.3-97.5,224.4-196.7,321.9-165.5"/>
	<path class="st107" d="M728.6,462.8c30.8-13.2,96.8,13.1,110,43.8"/>
	<path class="st108" d="M728.6,462.8c38.7-72.2,205.2-122.5,277.4-83.8"/>
	<path class="st109" d="M728.6,462.8c55.8-38.3,196.9-12.2,235.2,43.6"/>
	<path class="st85" d="M728.6,462.8c93.5-30.3,279.2,64.5,309.5,157.9"/>
	<path class="st5" d="M728.6,462.8c44.2,21.1,78.9,119,57.8,163.1"/>
	<path class="st110" d="M728.6,462.8c-37.7,70.7-200.4,120.2-271.2,82.4"/>
	<path class="st111" d="M728.6,462.8c-30.6,79.4-195.5,152.6-274.9,122"/>
	<path class="st5" d="M728.6,462.8c-19.7-49.1,24.4-152.2,73.5-171.9"/>
	<path class="st112" d="M728.6,462.8c-88.8,42.7-286-26.5-328.7-115.3"/>
	<path class="st76" d="M728.6,462.8c-11.9,34.9-82.1,69.3-116.9,57.4"/>
	<path class="st14" d="M728.6,462.8c-63,27.1-198.3-26.8-225.4-89.8"/>
	<path class="st5" d="M728.6,462.8c36.6-29.5,135.8-18.9,165.3,17.6"/>
	<path class="st27" d="M728.6,462.8c-34.4,23.5-121.3,7.1-144.8-27.3"/>
	<path class="st84" d="M728.6,462.8c22.6-45.6,124.9-80.3,170.6-57.7"/>
	<path class="st15" d="M728.6,462.8c-77.2,7.2-203.8-97.8-210.9-175"/>
	<path class="st1" d="M728.6,462.8C617.8,496.6,401,381.1,367.2,270.3"/>
	<path class="st10" d="M728.6,462.8c-43.2-37.1-52.4-157.7-15.2-200.9"/>
	<path class="st91" d="M728.6,462.8c-48.8,22.3-155.3-17.4-177.6-66.1"/>
	<path class="st5" d="M728.6,462.8c-14.5-76.5,78.6-213.1,155.2-227.5"/>
	<path class="st18" d="M728.6,462.8c34.7-80.5,207.4-149.2,287.9-114.5"/>
	<path class="st85" d="M728.6,462.8c80.5,5.8,192.6,135.3,186.8,215.8"/>
	<path class="st5" d="M728.6,462.8c14.6,55.6-46.8,160.9-102.4,175.6"/>
	<path class="st85" d="M728.6,462.8c79.8-101.1,351.2-133,452.3-53.1"/>
	<path class="st84" d="M728.6,462.8c-1.6,13-23.5,30.1-36.4,28.5"/>
	<path class="st113" d="M728.6,462.8c-62.3,3.5-160.9-84.7-164.4-147"/>
	<path class="st114" d="M728.6,462.8c17.9,37.1-10.9,119.4-47.9,137.3"/>
	<path class="st27" d="M728.6,462.8c52.3-105.9,289.6-186.2,395.5-133.9"/>
	<path class="st19" d="M728.6,462.8c-13.9-8.3-22.4-41.6-14.2-55.5"/>
	<path class="st5" d="M728.6,462.8c-76.7-4.3-185.4-125.8-181.2-202.5"/>
	<path class="st73" d="M728.6,462.8c46,44.4,48.5,180,4.1,226"/>
	<path class="st115" d="M728.6,462.8c1.9-45.6,73.2-111,118.8-109.1"/>
	<path class="st5" d="M728.6,462.8c-65.2,103.5-318.4,160.9-421.9,95.7"/>
	<path class="st90" d="M728.6,462.8c68.9-80.7,293.3-98.3,374-29.3"/>
	<path class="st19" d="M728.6,462.8c37,5.5,84.4,69.3,78.9,106.3"/>
	<path class="st85" d="M728.6,462.8C804.8,343.5,1098,278.9,1217.3,355"/>
	<path class="st94" d="M728.6,462.8c78.7-4.1,202.8,107.9,206.8,186.6"/>
	<path class="st116" d="M728.6,462.8c23,9.4,43.3,57.9,33.9,80.8"/>
	<path class="st85" d="M728.6,462.8c-34.1,33.5-135.4,32.8-169-1.3"/>
	<path class="st17" d="M728.6,462.8C741.1,371.3,897,252.6,988.6,265"/>
	<path class="st17" d="M728.6,462.8c-6.4,65.3-114,153.8-179.3,147.4"/>
	<path class="st17" d="M728.6,462.8c58.7-60.2,237.2-62.5,297.4-3.8"/>
	<path class="st5" d="M728.6,462.8c13.8-71.3,141.5-157.4,212.7-143.6"/>
	<path class="st117" d="M291.1,380.2c5.5-30.1,58.9-67,89-61.4"/>
	<path class="st6" d="M291.1,380.2c-5.5-67.8,87.9-177.8,155.7-183.3"/>
	<path class="st5" d="M291.1,380.2c-65.4,1.9-166.3-93.4-168.2-158.8"/>
	<path class="st33" d="M291.1,380.2c70-37.5,231.1,11.3,268.6,81.3"/>
	<path class="st26" d="M291.1,380.2c15.2-28.3,80.5-48,108.9-32.8"/>
	<path class="st5" d="M291.1,380.2c23.3-11.9,76.1,5.3,88,28.6"/>
	<path class="st5" d="M291.1,380.2c7.7,34.9-33.1,98.9-68,106.6"/>
	<path class="st5" d="M291.1,380.2c41-43.9,168.3-48.2,212.2-7.2"/>
	<path class="st33" d="M291.1,380.2c69.6-47.5,245.3-14.3,292.8,55.3"/>
	<path class="st118" d="M399.9,347.5c-9.7-1.8-21.6-19-19.8-28.7"/>
	<path class="st10" d="M399.9,347.5c60.7-52.4,230.4-40,282.8,20.7"/>
	<path class="st119" d="M399.9,347.5c67.5-75.4,281.9-87.1,357.3-19.6"/>
	<path class="st16" d="M399.9,347.5c32.3-34.6,132.7-37.9,167.3-5.6"/>
	<path class="st33" d="M399.9,347.5c106.5-71.7,373.7-19.6,445.4,86.9"/>
	<path class="st33" d="M399.9,347.5c24.4,41.7-1.5,141-43.2,165.4"/>
	<path class="st1" d="M399.9,347.5c90.8-78.3,344.4-59.7,422.8,31.1"/>
	<path class="st5" d="M399.9,347.5C336.6,332,264.7,213.9,280.1,150.6"/>
	<path class="st14" d="M399.9,347.5c127.5-114.9,491.2-96,606.1,31.5"/>
	<path class="st5" d="M399.9,347.5c-80.6,30.2-246.9-45.4-277.1-126"/>
	<path class="st26" d="M399.9,347.5c25.8-15.6,87.8-0.2,103.3,25.5"/>
	<path class="st12" d="M399.9,347.5c11.6-35.5,82.3-71.3,117.7-59.7"/>
	<path class="st13" d="M399.9,347.5c45.6-79.8,233.7-131.1,313.5-85.6"/>
	<path class="st7" d="M399.9,347.5c40.1-20.4,130.7,9.1,151.1,49.2"/>
	<path class="st6" d="M399.9,347.5c30.3-98.8,224-201.6,322.8-171.2"/>
	<path class="st5" d="M399.9,347.5c-20.7-39.5,7.4-129.8,46.8-150.5"/>
	<path class="st1" d="M399.9,347.5c87.2-29.7,262.6,56.6,292.3,143.8"/>
	<path class="st8" d="M399.9,347.5c26.5-39.2,125.1-58.2,164.3-31.6"/>
	<path class="st8" d="M399.9,347.5c12.1-46.9,100.6-99.2,147.5-87.1"/>
	<path class="st20" d="M399.9,347.5c90.8-88.3,359.3-84.5,447.5,6.3"/>
	<path class="st102" d="M399.9,347.5c-14.9,50.1-112.4,102.9-162.5,88"/>
	<path class="st120" d="M399.9,347.5c111.8-33.3,329.4,84.4,362.6,196.2"/>
	<path class="st5" d="M399.9,347.5c-30.1,8.2-87.4-24.7-95.6-54.8"/>
	<path class="st5" d="M399.9,347.5C345,342.2,270.5,252,275.7,197.1"/>
	<path class="st8" d="M399.9,347.5c102.6-113.9,427.5-130.9,541.4-28.2"/>
	<path class="st8" d="M375.9,173.9c29.8,28.1,32.3,115.1,4.2,144.9"/>
	<path class="st6" d="M375.9,173.9c72.2-48.4,253-12.8,301.4,59.4"/>
	<path class="st121" d="M677.3,233.3c-42.3,76.5-220.7,127.8-297.2,85.5"/>
	<path class="st6" d="M677.3,233.3c-72.2,48.4-253,12.8-301.4-59.4"/>
	<path class="st5" d="M677.3,233.3c12.9-1.5,34.6,15.7,36.1,28.6"/>
	<path class="st5" d="M677.3,233.3c41.7-40.9,165.6-39.7,206.5,2"/>
	<path class="st5" d="M677.3,233.3c-2.3-20.5,24.9-54.7,45.4-57.1"/>
	<path class="st6" d="M677.3,233.3c-53.4,38.8-191.7,17-230.6-36.4"/>
	<path class="st5" d="M677.3,233.3c-91.1,42.7-291.8-30-334.4-121.2"/>
	<path class="st13" d="M677.3,233.3c36.5-13.4,111.4,21.1,124.8,57.6"/>
	<path class="st8" d="M677.3,233.3c-6.1,39.1-74,88.7-113.1,82.6"/>
	<path class="st6" d="M677.3,233.3c70-35.6,228.4,16,264,86"/>
	<path class="st122" d="M802.1,290.9c-78.8,90-332.1,106.7-422,27.9"/>
	<path class="st5" d="M802.1,290.9c-75.7,14.8-211.5-76.7-226.2-152.4"/>
	<path class="st66" d="M802.1,290.9c42.3,3.4,100.5,72,97,114.2"/>
	<path class="st123" d="M802.1,290.9c-57.5,56.3-228.2,54.4-284.5-3.1"/>
	<path class="st13" d="M802.1,290.9c21.5-53.9,134.5-102.5,188.4-81"/>
	<path class="st11" d="M802.1,290.9c-79.4-2.4-195-125.2-192.6-204.6"/>
	<path class="st124" d="M802.1,290.9C773.1,362.3,622.4,425.7,551,396.7"/>
	<path class="st12" d="M802.1,290.9c-69.1,91.8-310.5,125.7-402.2,56.6"/>
	<path class="st125" d="M802.1,290.9c58.4-23.2,180.7,29.7,203.9,88.1"/>
	<path class="st126" d="M802.1,290.9c54.4-31.4,183,3.1,214.4,57.4"/>
	<path class="st23" d="M802.1,290.9c-37.2-18.9-64.7-103-45.9-140.2"/>
	<path class="st127" d="M802.1,290.9c-1.6,16.4-28.6,38.6-44.9,37"/>
	<path class="st14" d="M802.1,290.9c21.6,13.4,34,66,20.6,87.7"/>
	<path class="st67" d="M802.1,290.9c-0.2-44.5,66.2-111.5,110.6-111.7"/>
	<path class="st8" d="M802.1,290.9c-36.5,13.4-111.4-21.1-124.8-57.6"/>
	<path class="st8" d="M802.1,290.9c33.5-22.2,117-5.2,139.2,28.3"/>
	<path class="st128" d="M802.1,290.9c-42.6,52.6-185.4,67.5-237.9,24.9"/>
	<path class="st5" d="M802.1,290.9c-87.8,69.8-324.3,42.9-394.1-44.9"/>
	<path class="st5" d="M802.1,290.9c95.9-70.2,345-31.7,415.2,64.2"/>
	<path class="st5" d="M802.1,290.9C693,338.8,457.4,247,409.5,137.9"/>
	<path class="st8" d="M802.1,290.9c-57.1-38.4-85.2-181.5-46.8-238.6"/>
	<path class="st5" d="M802.1,290.9c-57.1,44.8-209.9,26.5-254.7-30.6"/>
	<path class="st30" d="M802.1,290.9c-36.8,57.2-177.7,87.8-234.9,51"/>
	<path class="st5" d="M802.1,290.9c-44-40.9-48.6-168.2-7.7-212.1"/>
	<path class="st6" d="M802.1,290.9c-10.9-65,70.3-178.9,135.3-189.7"/>
	<path class="st12" d="M802.1,290.9c23.3-78.2,175.7-160.6,253.9-137.3"/>
	<path class="st6" d="M802.1,290.9c-12-54.5,51.8-154.2,106.3-166.2"/>
	<path class="st128" d="M802.1,290.9c21.6,3.5,48.8,41.2,45.3,62.8"/>
	<path class="st1" d="M802.1,290.9c32.1-42.5,144-58,186.4-25.9"/>
	<path class="st5" d="M802.1,290.9c-30.6-4-70.5-55.9-66.5-86.4"/>
	<path class="st11" d="M802.1,290.9c-89.9,52.3-303.1-4.1-355.4-94"/>
	<path class="st129" d="M802.1,290.9c-43.4,76.2-222.7,125.5-298.9,82.1"/>
	<path class="st20" d="M802.1,290.9C753.7,268,715.2,161,738,112.5"/>
	<path class="st130" d="M757.2,327.8c-77.2,73.6-303.5,68.2-377.1-9.1"/>
	<path class="st16" d="M757.2,327.8c-6.8,23-51.5,47.1-74.5,40.3"/>
	<path class="st5" d="M757.2,327.8c-22-4.4-48.2-44-43.8-66"/>
	<path class="st67" d="M757.2,327.8c-55.9,39.9-199.6,15.8-239.5-40.1"/>
	<path class="st5" d="M757.2,327.8C710,428.7,488,509.2,387.1,462.1"/>
	<path class="st23" d="M757.2,327.8c-27.5,55-151.2,96.3-206.2,68.8"/>
	<path class="st131" d="M757.2,327.8c1.6-16.4,28.6-38.6,44.9-37"/>
	<path class="st1" d="M757.2,327.8c56-47.8,211.6-35.5,259.3,20.5"/>
	<path class="st5" d="M757.2,327.8c-35.6-35.2-36.2-141.6-0.9-177.2"/>
	<path class="st132" d="M757.2,327.8c-35.2,40.8-149.2,49.2-190,14"/>
	<path class="st8" d="M757.2,327.8c-67.5,75.4-281.9,87.1-357.3,19.6"/>
	<path class="st5" d="M757.2,327.8c1.4-60.8,94.7-150,155.6-148.7"/>
	<path class="st133" d="M757.2,327.8c-41,36.2-156.8,29-193-12"/>
	<path class="st1" d="M757.2,327.8c-25.4,89.5-197.6,185.6-287,160.2"/>
	<path class="st119" d="M757.2,327.8c23.2-12.9,77.3,2.6,90.2,25.9"/>
	<path class="st5" d="M757.2,327.8c-46.9-39.2-58.4-168.4-19.2-215.3"/>
	<path class="st5" d="M757.2,327.8c23.2-3,62.5,27.5,65.5,50.7"/>
	<path class="st134" d="M408,245.9c9,20.1-7.8,63.8-27.9,72.8"/>
	<path class="st5" d="M408,245.9c-37.2,38-150.1,39.2-188.1,1.9"/>
</g>
<g id="nodes">
	<circle class="st135" cx="924.6" cy="530" r="6"/>
	<circle class="st136" cx="375.9" cy="173.9" r="6"/>
	<circle class="st136" cx="380.1" cy="318.8" r="18.3"/>
	<circle class="st135" cx="682.7" cy="368.1" r="8.9"/>
	<circle class="st136" cx="450.5" cy="88.7" r="6"/>
	<circle class="st137" cx="613.3" cy="573.7" r="6.7"/>
	<circle class="st135" cx="728.6" cy="462.8" r="6"/>
	<circle class="st137" cx="865.6" cy="711.7" r="6"/>
	<circle class="st135" cx="387.1" cy="462.1" r="6.7"/>
	<circle class="st135" cx="944.3" cy="594.6" r="6"/>
	<circle class="st136" cx="408" cy="245.9" r="7.4"/>
	<circle class="st135" cx="54.2" cy="607.9" r="5.3"/>
	<circle class="st135" cx="539.8" cy="755" r="6"/>
	<circle class="st136" cx="757.2" cy="327.8" r="12.5"/>
	<circle class="st135" cx="567.2" cy="341.9" r="10.3"/>
	<circle class="st137" cx="575.8" cy="667" r="6"/>
	<circle class="st136" cx="220.9" cy="351.2" r="6"/>
	<circle class="st135" cx="470.2" cy="488.1" r="6.7"/>
	<circle class="st135" cx="767" cy="655.7" r="6"/>
	<circle class="st135" cx="845.3" cy="434.3" r="7.4"/>
	<circle class="st135" cx="356.7" cy="512.9" r="6.7"/>
	<circle class="st136" cx="513.2" cy="222.5" r="6.7"/>
	<circle class="st135" cx="223" cy="486.8" r="6.7"/>
	<circle class="st137" cx="432.4" cy="726.7" r="6"/>
	<circle class="st135" cx="822.7" cy="378.6" r="8.2"/>
	<circle class="st136" cx="1050.5" cy="297.3" r="6"/>
	<circle class="st136" cx="568.3" cy="162.3" r="6.7"/>
	<circle class="st135" cx="838.6" cy="506.6" r="6"/>
	<circle class="st136" cx="609.6" cy="86.3" r="6"/>
	<circle class="st136" cx="280.1" cy="150.6" r="6"/>
	<circle class="st136" cx="319" cy="220.9" r="8.2"/>
	<circle class="st135" cx="1006" cy="379" r="8.2"/>
	<circle class="st135" cx="963.9" cy="506.4" r="6"/>
	<circle class="st135" cx="1038.1" cy="620.7" r="6"/>
	<circle class="st135" cx="430.2" cy="616.8" r="6"/>
	<circle class="st135" cx="786.5" cy="626" r="6"/>
	<circle class="st135" cx="457.5" cy="545.2" r="6.7"/>
	<circle class="st135" cx="1124.1" cy="328.9" r="6"/>
	<circle class="st136" cx="122.8" cy="221.4" r="6"/>
	<circle class="st138" cx="195.8" cy="584.7" r="6"/>
	<circle class="st136" cx="802.1" cy="290.9" r="9.6"/>
	<circle class="st138" cx="184.5" cy="526.6" r="6"/>
	<circle class="st136" cx="399.9" cy="347.5" r="9.6"/>
	<circle class="st136" cx="794.4" cy="78.7" r="6"/>
	<circle class="st138" cx="53.5" cy="459.6" r="6"/>
	<circle class="st136" cx="1056" cy="153.6" r="6"/>
	<circle class="st137" cx="364" cy="666.1" r="6"/>
	<circle class="st136" cx="735.7" cy="204.4" r="6"/>
	<circle class="st136" cx="578.2" cy="62.9" r="6.7"/>
	<circle class="st136" cx="446.8" cy="196.9" r="7.4"/>
	<circle class="st136" cx="503.2" cy="373" r="8.9"/>
	<circle class="st136" cx="738" cy="112.5" r="6"/>
	<circle class="st138" cx="283.3" cy="610.2" r="6"/>
	<circle class="st135" cx="453.7" cy="584.8" r="7.4"/>
	<circle class="st135" cx="583.8" cy="435.5" r="8.2"/>
	<circle class="st138" cx="151" cy="410" r="6"/>
	<circle class="st136" cx="575.9" cy="138.4" r="6.7"/>
	<circle class="st135" cx="899.2" cy="405.1" r="6.7"/>
	<circle class="st136" cx="517.7" cy="287.8" r="11"/>
	<circle class="st136" cx="367.2" cy="270.3" r="8.9"/>
	<circle class="st137" cx="701" cy="726.9" r="6"/>
	<circle class="st136" cx="713.4" cy="261.9" r="8.9"/>
	<circle class="st136" cx="551" cy="396.7" r="9.6"/>
	<circle class="st135" cx="883.8" cy="235.3" r="6"/>
	<circle class="st136" cx="722.7" cy="176.2" r="7.4"/>
	<circle class="st135" cx="1016.6" cy="348.3" r="8.9"/>
	<circle class="st135" cx="915.4" cy="678.6" r="6"/>
	<circle class="st136" cx="342.9" cy="112.1" r="6"/>
	<circle class="st135" cx="626.2" cy="638.4" r="6.7"/>
	<circle class="st135" cx="1180.9" cy="409.7" r="6"/>
	<circle class="st135" cx="692.2" cy="491.3" r="6.7"/>
	<circle class="st136" cx="564.2" cy="315.8" r="11"/>
	<circle class="st135" cx="680.7" cy="600.1" r="6.7"/>
	<circle class="st135" cx="714.4" cy="407.3" r="7.4"/>
	<circle class="st136" cx="547.5" cy="260.3" r="8.2"/>
	<circle class="st137" cx="732.8" cy="688.8" r="6"/>
	<circle class="st136" cx="937.5" cy="101.1" r="6"/>
	<circle class="st136" cx="908.5" cy="124.7" r="6"/>
	<circle class="st136" cx="847.4" cy="353.7" r="8.9"/>
	<circle class="st138" cx="306.7" cy="558.5" r="6.7"/>
	<circle class="st138" cx="82.1" cy="381.3" r="6"/>
	<circle class="st136" cx="990.6" cy="209.8" r="6"/>
	<circle class="st136" cx="220" cy="247.9" r="6.7"/>
	<circle class="st135" cx="237.4" cy="435.5" r="6.7"/>
	<circle class="st135" cx="1102.6" cy="433.5" r="7.4"/>
	<circle class="st135" cx="611.7" cy="520.2" r="7.4"/>
	<circle class="st135" cx="807.5" cy="569.1" r="6"/>
	<circle class="st135" cx="559.7" cy="461.5" r="6.7"/>
	<circle class="st135" cx="893.9" cy="480.4" r="6.7"/>
	<circle class="st135" cx="1217.3" cy="355" r="7.4"/>
	<circle class="st135" cx="935.5" cy="649.4" r="6"/>
	<circle class="st137" cx="762.6" cy="543.7" r="7.4"/>
	<circle class="st136" cx="756.3" cy="150.7" r="6"/>
	<circle class="st136" cx="600.7" cy="199" r="6"/>
	<circle class="st136" cx="912.8" cy="179.2" r="6"/>
	<circle class="st136" cx="677.3" cy="233.3" r="6.7"/>
	<circle class="st136" cx="304.3" cy="292.7" r="8.2"/>
	<circle class="st136" cx="941.3" cy="319.2" r="8.9"/>
	<circle class="st137" cx="495.1" cy="639.7" r="6"/>
	<circle class="st135" cx="988.6" cy="265" r="6.7"/>
	<circle class="st136" cx="409.5" cy="137.9" r="6"/>
	<circle class="st136" cx="755.3" cy="52.3" r="6"/>
	<circle class="st138" cx="379.1" cy="408.8" r="6.7"/>
	<circle class="st135" cx="549.3" cy="610.2" r="6.7"/>
	<circle class="st136" cx="275.7" cy="197.1" r="6"/>
	<circle class="st136" cx="291.1" cy="380.2" r="6"/>
	<circle class="st135" cx="1026" cy="459" r="6"/>
	<circle class="st137" cx="564.3" cy="698.1" r="6"/>
</g>
<g id="node-labels">
	<text transform="matrix(1 0 0 1 897.0137 532.649)" class="st139 st140">mintimm</text>
	<text transform="matrix(1 0 0 1 320.711 176.5504)" class="st139 st140">mikereedschmidt</text>
	<text transform="matrix(1 0 0 1 251.0708 329.0402)" class="st139 st141">HillaryClinton</text>
	<text transform="matrix(1 0 0 1 638.9747 373.0041)" class="st139 st142">adamslily</text>
	<text transform="matrix(1 0 0 1 408.6988 91.3971)" class="st139 st140">2SmallToFail</text>
	<text transform="matrix(1 0 0 1 569.5259 577.5065)" class="st139 st143">HillaryforNV</text>
	<text transform="matrix(1 0 0 1 691.2842 466.1422)" class="st139 st140">lorellapraeli</text>
	<text transform="matrix(1 0 0 1 821.8018 714.3971)" class="st139 st140">CheskaMaeP</text>
	<text transform="matrix(1 0 0 1 342.8194 465.9088)" class="st139 st143">HillaryforNH</text>
	<text transform="matrix(1 0 0 1 911.0567 598.0172)" class="st139 st140">just_jenna</text>
	<text transform="matrix(1 0 0 1 374.0367 249.2663)" class="st139 st144">timkaine</text>
	<text transform="matrix(1 0 0 1 11.9678 610.2155)" class="st139 st145">BernieSanders</text>
	<text transform="matrix(1 0 0 1 490.4053 758.4137)" class="st139 st140">jgillanNews3LV</text>
	<text transform="matrix(1 0 0 1 646.6964 334.9157)" class="st139 st146">TheBriefing2016</text>
	<text transform="matrix(1 0 0 1 503.5176 346.4508)" class="st139 st147">brianefallon</text>
	<text transform="matrix(1 0 0 1 528.3492 670.4039)" class="st139 st140">MickyWhiteNV</text>
	<text transform="matrix(1 0 0 1 182.8482 354.6252)" class="st139 st140">HillaryforPA</text>
	<text transform="matrix(1 0 0 1 431.8214 491.0866)" class="st139 st143">aseitzwald</text>
	<text transform="matrix(1 0 0 1 731.6758 658.4518)" class="st139 st140">NBCLatino</text>
	<text transform="matrix(1 0 0 1 812.8399 438.5089)" class="st139 st144">lcollinsp</text>
	<text transform="matrix(1 0 0 1 312.8975 515.9078)" class="st139 st143">CNNPolitics</text>
	<text transform="matrix(1 0 0 1 464.4 225.5221)" class="st139 st143">dominiclowell</text>
	<text transform="matrix(1 0 0 1 177.3873 490.693)" class="st139 st143">BrynneCraig</text>
	<text transform="matrix(1 0 0 1 394.6495 730.0983)" class="st139 st140">_DCAndres</text>
	<text transform="matrix(1 0 0 1 777.9815 382.0539)" class="st139 st148">NickMerrill</text>
	<text transform="matrix(1 0 0 1 1024.0977 300.713)" class="st139 st140">guycecil</text>
	<text transform="matrix(1 0 0 1 528.5811 165.3678)" class="st139 st143">ClintonFdn</text>
	<text transform="matrix(1 0 0 1 813.0684 509.2868)" class="st139 st140">AlPunto</text>
	<text transform="matrix(1 0 0 1 574.8052 88.9753)" class="st139 st140">CAPAction</text>
	<text transform="matrix(1 0 0 1 264.3253 153.3234)" class="st139 st140">HRC</text>
	<text transform="matrix(1 0 0 1 254.0313 224.4132)" class="st139 st148">ChelseaClinton</text>
	<text transform="matrix(1 0 0 1 940.5225 382.5446)" class="st139 st148">danmericaCNN</text>
	<text transform="matrix(1 0 0 1 936.2667 509.1071)" class="st139 st140">TUSK81</text>
	<text transform="matrix(1 0 0 1 1001.7413 623.3981)" class="st139 st140">MMViverito</text>
	<text transform="matrix(1 0 0 1 403.8663 619.5465)" class="st139 st140">MSNBC</text>
	<text transform="matrix(1 0 0 1 742.6221 629.3317)" class="st139 st140">Rob_Flaherty</text>
	<text transform="matrix(1 0 0 1 416.8345 549.0348)" class="st139 st143">Hillary_esp</text>
	<text transform="matrix(1 0 0 1 1098.9297 331.6442)" class="st139 st140">ASDem</text>
	<text transform="matrix(1 0 0 1 87.1436 224.1217)" class="st139 st140">JamilSmith</text>
	<text transform="matrix(1 0 0 1 140.6143 587.3834)" class="st139 st140">MarlonDMarshall</text>
	<text transform="matrix(1 0 0 1 728.5899 296.1715)" class="st139 st149">rosenbergerlm</text>
	<text transform="matrix(1 0 0 1 142.7071 529.8951)" class="st139 st140">politicalmiller</text>
	<text transform="matrix(1 0 0 1 337.1544 352.7379)" class="st139 st149">mayaharris_</text>
	<text transform="matrix(1 0 0 1 746.8292 82.1203)" class="st139 st140">TrumanProject</text>
	<text transform="matrix(1 0 0 1 3.6329 462.2086)" class="st139 st140">FormasForever</text>
	<text transform="matrix(1 0 0 1 1012.6006 157.0045)" class="st139 st140">speechboy71</text>
	<text transform="matrix(1 0 0 1 314.0665 669.4323)" class="st139 st140">natimontelongo</text>
	<text transform="matrix(1 0 0 1 703.2276 207.841)" class="st139 st140">jmurray20</text>
	<text transform="matrix(1 0 0 1 525.7198 65.9162)" class="st139 st143">BarackObama</text>
	<text transform="matrix(1 0 0 1 385.8912 200.2492)" class="st139 st144">ZerlinaMaxwell</text>
	<text transform="matrix(1 0 0 1 440.8174 376.8854)" class="st139 st142">DanSchwerin</text>
	<text transform="matrix(1 0 0 1 691.3555 115.8737)" class="st139 st140">Zac_Petkanas</text>
	<text transform="matrix(1 0 0 1 237.022 613.5309)" class="st139 st140">brandonspeak</text>
	<text transform="matrix(1 0 0 1 410.5938 588.0856)" class="st139 st144">UniPolitica</text>
	<text transform="matrix(1 0 0 1 499.6768 439.0138)" class="st139 st148">AdamParkhomenko</text>
	<text transform="matrix(1 0 0 1 102.7486 413.4074)" class="st139 st140">gabrielleisback</text>
	<text transform="matrix(1 0 0 1 536.6837 141.4816)" class="st139 st143">NickKristof</text>
	<text transform="matrix(1 0 0 1 847.1563 408.9855)" class="st139 st143">CoreyCiorciari</text>
	<text transform="matrix(1 0 0 1 445.5577 293.8922)" class="st139 st150">johnpodesta</text>
	<text transform="matrix(1 0 0 1 323.9952 274.1252)" class="st139 st142">billclinton</text>
	<text transform="matrix(1 0 0 1 669.3292 730.236)" class="st139 st140">timjhogan</text>
	<text transform="matrix(1 0 0 1 654.4551 266.818)" class="st139 st142">Ann_OLeary</text>
	<text transform="matrix(1 0 0 1 483.7969 400.8087)" class="st139 st149">JesseLehrich</text>
	<text transform="matrix(1 0 0 1 845.2442 238.6432)" class="st139 st140">abbydphillip</text>
	<text transform="matrix(1 0 0 1 678.6016 179.5363)" class="st139 st144">voxdotcom</text>
	<text transform="matrix(1 0 0 1 975.1319 352.2067)" class="st139 st142">IanSams</text>
	<text transform="matrix(1 0 0 1 861.4161 681.276)" class="st139 st140">TelemundoNews</text>
	<text transform="matrix(1 0 0 1 295.0093 114.8317)" class="st139 st140">elizabethforma</text>
	<text transform="matrix(1 0 0 1 589.2418 642.1285)" class="st139 st143">Astrid_NV</text>
	<text transform="matrix(1 0 0 1 1139.916 412.3463)" class="st139 st140">neeratanden</text>
	<text transform="matrix(1 0 0 1 648.3589 495.0817)" class="st139 st143">Carrasquillo</text>
	<text transform="matrix(1 0 0 1 493.5899 321.9665)" class="st139 st150">creynoldsnc</text>
	<text transform="matrix(1 0 0 1 641.8892 603.1139)" class="st139 st143">JessLivMo</text>
	<text transform="matrix(1 0 0 1 668.7823 411.5973)" class="st139 st144">MattOrtega</text>
	<text transform="matrix(1 0 0 1 495.2593 263.8009)" class="st139 st148">WhiteHouse</text>
	<text transform="matrix(1 0 0 1 704.7481 691.4908)" class="st139 st140">Jneri312</text>
	<text transform="matrix(1 0 0 1 917.5782 103.8048)" class="st139 st140">lrozen</text>
	<text transform="matrix(1 0 0 1 876.9327 127.3737)" class="st139 st140">TVietor08</text>
	<text transform="matrix(1 0 0 1 782.0909 357.5929)" class="st139 st142">JoshSchwerin</text>
	<text transform="matrix(1 0 0 1 266.5538 562.358)" class="st139 st143">HillaryforIA</text>
	<text transform="matrix(1 0 0 1 52.0713 384.7755)" class="st139 st140">SJW_sjw</text>
	<text transform="matrix(1 0 0 1 945.6329 212.5402)" class="st139 st140">PaulRieckhoff</text>
	<text transform="matrix(1 0 0 1 177.21 251.7316)" class="st139 st143">HillaryforVA</text>
	<text transform="matrix(1 0 0 1 182.1431 438.4982)" class="st139 st143">CecileRichards</text>
	<text transform="matrix(1 0 0 1 1034.1523 436.7824)" class="st139 st144">AmandaRenteria</text>
	<text transform="matrix(1 0 0 1 564.0103 524.4996)" class="st139 st144">Jorge_Silva</text>
	<text transform="matrix(1 0 0 1 770.5674 571.7731)" class="st139 st140">UniNoticias</text>
	<text transform="matrix(1 0 0 1 533.6255 465.3786)" class="st139 st143">finneyk</text>
	<text transform="matrix(1 0 0 1 865.6426 484.2516)" class="st139 st143">nytimes</text>
	<text transform="matrix(1 0 0 1 1149.3271 359.2726)" class="st139 st144">JesseFFerguson</text>
	<text transform="matrix(1 0 0 1 905.8555 652.7887)" class="st139 st140">EmmyA2</text>
	<text transform="matrix(1 0 0 1 723.0118 547.8795)" class="st139 st144">emmyruiz</text>
	<text transform="matrix(1 0 0 1 712.0342 154.0524)" class="st139 st140">MiekeEoyang</text>
	<text transform="matrix(1 0 0 1 575.9864 201.7404)" class="st139 st140">amprog</text>
	<text transform="matrix(1 0 0 1 860.4161 181.8419)" class="st139 st140">RNicholasBurns</text>
	<text transform="matrix(1 0 0 1 638.9747 237.0378)" class="st139 st143">mpshapiro</text>
	<text transform="matrix(1 0 0 1 285.7042 296.0934)" class="st139 st148">HFA</text>
	<text transform="matrix(1 0 0 1 910.419 324.0939)" class="st139 st142">jeneps</text>
	<text transform="matrix(1 0 0 1 472.8023 642.3473)" class="st139 st140">vvaldiv</text>
	<text transform="matrix(1 0 0 1 942.4473 268.7609)" class="st139 st143">PhilipRucker</text>
	<text transform="matrix(1 0 0 1 368.8746 141.2926)" class="st139 st140">repjohnlewis</text>
	<text transform="matrix(1 0 0 1 718.3858 54.9411)" class="st139 st140">dandrezner</text>
	<text transform="matrix(1 0 0 1 335.2608 412.6857)" class="st139 st143">HillaryforSC</text>
	<text transform="matrix(1 0 0 1 523.7383 613.9362)" class="st139 st143">politico</text>
	<text transform="matrix(1 0 0 1 256.2242 199.7897)" class="st139 st140">PPact</text>
	<text transform="matrix(1 0 0 1 260.2144 383.5919)" class="st139 st140">LSD_Esq</text>
	<text transform="matrix(1 0 0 1 987.8712 462.3717)" class="st139 st140">rweingarten</text>
	<text transform="matrix(1 0 0 1 510.3692 701.4948)" class="st139 st140">NelsonAraujoNV</text>
</g>
</svg>
